#N canvas 758 527 765 265 10;
#X obj 8 11 loadbang;
#X obj 612 190 delay;
#X msg 359 48 bang;
#X obj 8 55 t b b;
#X obj 612 168 t b f;
#X obj 359 167 random;
#X obj 40 119 soundfiler;
#X obj 40 76 \$0;
#X msg 8 33 bang;
#X obj 572 12 table \$0/6581-hum;
#X obj 359 191 tabplay~ \$0/6581-hum;
#X obj 359 213 outlet~;
#X msg 40 97 read -resize 6581-hum.wav \$1/6581-hum;
#X obj 359 27 r \$0/play;
#X obj 8 167 s \$0/play;
#X obj 359 70 t b b;
#X obj 40 141 s \$0/length;
#X obj 398 145 r \$0/length;
#X obj 612 147 random 30000;
#X obj 612 212 s \$0/play;
#X obj 496 213 s \$0/play;
#X connect 0 0 8 0;
#X connect 1 0 19 0;
#X connect 2 0 15 0;
#X connect 3 0 14 0;
#X connect 3 1 7 0;
#X connect 4 0 1 0;
#X connect 4 1 1 1;
#X connect 5 0 10 0;
#X connect 6 0 16 0;
#X connect 7 0 12 0;
#X connect 8 0 3 0;
#X connect 10 0 11 0;
#X connect 10 1 20 0;
#X connect 12 0 6 0;
#X connect 13 0 2 0;
#X connect 15 0 5 0;
#X connect 15 1 18 0;
#X connect 17 0 5 1;
#X connect 18 0 4 0;
