#N canvas 1106 50 450 680 10;
#X declare -path lib/rjlib/rj;
#X obj 202 83 expr 60000 / $f1;
#X obj 300 150 / 12;
#X obj 205 225 f;
#X obj 236 225 + 1;
#X obj 205 247 mod;
#X obj 297 207 list length;
#X obj 205 326 list split;
#X obj 238 350 list split 1;
#X obj 205 298 list;
#X obj 205 269 t b f;
#X obj 238 376 mtof;
#X obj 238 421 *~;
#X obj 205 163 t b a a;
#X obj 297 229 t f f;
#X obj 329 252 > 0;
#N canvas 2 50 450 333 synth 0;
#X obj 9 9 inlet;
#X obj 11 275 outlet~;
#X obj 200 44 t f f;
#X obj 10 139 *~ 1;
#X obj 72 139 *~ 0;
#X obj 9 31 t f f;
#X obj 227 66 == 0;
#X obj 9 95 s_blsaw;
#X obj 71 95 s_blsquare;
#X msg 108 35 0.5;
#X obj 108 13 loadbang;
#X obj 200 22 r \$0-waveform;
#X connect 0 0 5 0;
#X connect 2 0 3 1;
#X connect 2 1 6 0;
#X connect 3 0 1 0;
#X connect 4 0 1 0;
#X connect 5 0 7 0;
#X connect 5 1 8 0;
#X connect 6 0 4 1;
#X connect 7 0 3 0;
#X connect 8 0 4 0;
#X connect 9 0 8 1;
#X connect 10 0 9 0;
#X connect 11 0 2 0;
#X restore 238 398 pd synth;
#X obj 266 421 r arp-volume;
#X obj 238 592 vcf~ 4;
#X obj 238 614 *~ 4;
#X obj 284 570 mtof;
#X obj 284 548 int;
#X obj 352 79 + 1;
#X obj 352 123 t b f;
#X obj 352 101 * 3;
#X obj 238 636 outlet~;
#X obj 12 52 inlet;
#X obj 234 12 declare -path lib/rjlib/rj;
#X obj 12 74 u_dispatch \$0 bpm;
#X obj 202 61 r \$0-bpm;
#X obj 12 96 u_dispatch \$0 notes;
#X obj 205 142 r \$0-notes;
#X obj 12 118 u_dispatch \$0 rate;
#X obj 352 57 r \$0-rate;
#X obj 238 443 *~ 1;
#X obj 284 452 r \$0-cutoff;
#X obj 12 162 u_dispatch \$0 waveform;
#X obj 12 140 u_dispatch \$0 cutoff;
#X floatatom 337 281 5 0 0 0 - - -, f 5;
#X obj 54 223 print;
#X obj 306 478 loadbang;
#X obj 205 193 metro 42;
#X msg 306 500 127;
#X connect 0 0 1 0;
#X connect 1 0 40 1;
#X connect 2 0 3 0;
#X connect 2 0 4 0;
#X connect 3 0 2 1;
#X connect 4 0 9 0;
#X connect 5 0 13 0;
#X connect 6 1 7 0;
#X connect 7 0 10 0;
#X connect 8 0 6 0;
#X connect 9 0 8 0;
#X connect 9 1 6 1;
#X connect 10 0 15 0;
#X connect 11 0 33 0;
#X connect 12 0 40 0;
#X connect 12 1 8 1;
#X connect 12 2 5 0;
#X connect 13 0 4 1;
#X connect 13 1 14 0;
#X connect 14 0 11 1;
#X connect 14 0 37 0;
#X connect 15 0 11 0;
#X connect 16 0 33 1;
#X connect 17 0 18 0;
#X connect 18 0 24 0;
#X connect 19 0 17 1;
#X connect 20 0 19 0;
#X connect 21 0 23 0;
#X connect 22 0 1 0;
#X connect 22 1 1 1;
#X connect 23 0 22 0;
#X connect 25 0 27 0;
#X connect 25 0 38 0;
#X connect 27 0 29 0;
#X connect 28 0 0 0;
#X connect 29 0 31 0;
#X connect 30 0 12 0;
#X connect 31 0 36 0;
#X connect 32 0 21 0;
#X connect 33 0 17 0;
#X connect 34 0 20 0;
#X connect 36 0 35 0;
#X connect 39 0 41 0;
#X connect 40 0 2 0;
#X connect 41 0 20 0;
