#N canvas 1103 53 450 891 10;
#X declare -path lib/rjlib/rj;
#X obj 202 83 expr 60000 / $f1;
#X obj 300 150 / 12;
#X obj 205 225 f;
#X obj 236 225 + 1;
#X obj 205 247 mod;
#X obj 297 207 list length;
#X obj 205 326 list split;
#X obj 238 350 list split 1;
#X obj 205 298 list;
#X obj 205 269 t b f;
#X obj 237 513 *~;
#X obj 205 163 t b a a;
#X obj 297 229 t f f;
#X obj 329 252 > 0;
#N canvas 1 53 450 333 synth 0;
#X obj 11 275 outlet~;
#X obj 200 44 t f f;
#X obj 10 139 *~ 1;
#X obj 72 139 *~ 0;
#X obj 227 66 == 0;
#X obj 9 95 s_blsaw;
#X obj 71 95 s_blsquare;
#X msg 108 35 0.5;
#X obj 108 13 loadbang;
#X obj 200 22 r \$0-waveform;
#X obj 9 9 inlet~;
#X connect 1 0 2 1;
#X connect 1 1 4 0;
#X connect 2 0 0 0;
#X connect 3 0 0 0;
#X connect 4 0 3 1;
#X connect 5 0 2 0;
#X connect 6 0 3 0;
#X connect 7 0 6 1;
#X connect 8 0 7 0;
#X connect 9 0 1 0;
#X connect 10 0 5 0;
#X connect 10 0 6 0;
#X restore 237 490 pd synth;
#X obj 265 513 r arp-volume;
#X obj 237 684 vcf~ 4;
#X obj 237 706 *~ 4;
#X obj 283 662 mtof;
#X obj 283 640 int;
#X obj 352 79 + 1;
#X obj 352 123 t b f;
#X obj 352 101 * 3;
#X obj 237 728 outlet~;
#X obj 12 52 inlet;
#X obj 234 12 declare -path lib/rjlib/rj;
#X obj 12 74 u_dispatch \$0 bpm;
#X obj 202 61 r \$0-bpm;
#X obj 12 96 u_dispatch \$0 notes;
#X obj 205 142 r \$0-notes;
#X obj 12 118 u_dispatch \$0 rate;
#X obj 352 57 r \$0-rate;
#X obj 237 535 *~ 1;
#X obj 283 544 r \$0-cutoff;
#X obj 12 162 u_dispatch \$0 waveform;
#X obj 12 140 u_dispatch \$0 cutoff;
#X floatatom 337 281 5 0 0 0 - - -, f 5;
#X obj 305 570 loadbang;
#X obj 205 193 metro 42;
#X msg 305 592 127;
#X obj 238 466 mtof~;
#X obj 238 442 +~;
#X obj 49 620 vline~;
#X obj 19 359 r KEYBOARD;
#X obj 19 403 sel 1;
#X obj 133 404 sel 1;
#X msg 36 570 \$1 \$2 \, 0 \$2 \$2;
#X obj 19 381 route key_backslash key_semicolon;
#N canvas 1 53 450 300 longer 0;
#X obj 14 15 inlet;
#X obj 14 39 t b b;
#X obj 14 84 / 10000;
#X obj 75 106 + 250;
#X obj 14 139 pack f f;
#X obj 14 62 random 6000;
#X obj 14 106 - 0.3;
#X obj 14 161 outlet;
#X obj 75 84 random 3000;
#X connect 0 0 1 0;
#X connect 1 0 5 0;
#X connect 1 1 8 0;
#X connect 2 0 6 0;
#X connect 3 0 4 1;
#X connect 4 0 7 0;
#X connect 5 0 2 0;
#X connect 6 0 4 0;
#X connect 8 0 3 0;
#X restore 19 433 pd longer;
#N canvas 1 53 450 300 shorter 0;
#X obj 14 15 inlet;
#X obj 14 39 t b b;
#X obj 14 84 / 10000;
#X obj 14 139 pack f f;
#X obj 14 161 outlet;
#X obj 14 62 random 10000;
#X obj 14 106 - 0.5;
#X obj 75 84 random 500;
#X connect 0 0 1 0;
#X connect 1 0 5 0;
#X connect 1 1 7 0;
#X connect 2 0 6 0;
#X connect 3 0 4 0;
#X connect 5 0 2 0;
#X connect 6 0 3 0;
#X connect 7 0 3 1;
#X restore 126 432 pd shorter;
#X connect 0 0 1 0;
#X connect 1 0 38 1;
#X connect 2 0 3 0;
#X connect 2 0 4 0;
#X connect 3 0 2 1;
#X connect 4 0 9 0;
#X connect 5 0 12 0;
#X connect 6 1 7 0;
#X connect 7 0 41 0;
#X connect 8 0 6 0;
#X connect 9 0 8 0;
#X connect 9 1 6 1;
#X connect 10 0 32 0;
#X connect 11 0 38 0;
#X connect 11 1 8 1;
#X connect 11 2 5 0;
#X connect 12 0 4 1;
#X connect 12 1 13 0;
#X connect 13 0 10 1;
#X connect 13 0 36 0;
#X connect 14 0 10 0;
#X connect 15 0 32 1;
#X connect 16 0 17 0;
#X connect 17 0 23 0;
#X connect 18 0 16 1;
#X connect 19 0 18 0;
#X connect 20 0 22 0;
#X connect 21 0 1 0;
#X connect 21 1 1 1;
#X connect 22 0 21 0;
#X connect 24 0 26 0;
#X connect 26 0 28 0;
#X connect 27 0 0 0;
#X connect 28 0 30 0;
#X connect 29 0 11 0;
#X connect 30 0 35 0;
#X connect 31 0 20 0;
#X connect 32 0 16 0;
#X connect 33 0 19 0;
#X connect 35 0 34 0;
#X connect 37 0 39 0;
#X connect 38 0 2 0;
#X connect 39 0 19 0;
#X connect 40 0 14 0;
#X connect 41 0 40 0;
#X connect 42 0 41 1;
#X connect 43 0 47 0;
#X connect 44 0 48 0;
#X connect 45 0 49 0;
#X connect 46 0 42 0;
#X connect 47 0 44 0;
#X connect 47 1 45 0;
#X connect 48 0 46 0;
#X connect 49 0 46 0;
