#N canvas 399 282 450 300 10;
#X obj 10 10 inlet;
#X obj 10 32 t f f;
#X obj 10 104 outlet;
#X obj 42 54 == 127;
#X obj 42 76 s \$1;
#X connect 0 0 1 0;
#X connect 1 0 2 0;
#X connect 1 1 3 0;
#X connect 3 0 4 0;
