#N canvas 875 515 450 300 10;
#X obj 11 15 inlet~;
#X obj 12 269 outlet~;
#X obj 254 269 outlet~;
#X obj 11 127 *~ 1;
#X obj 69 127 *~ 0;
#X obj 77 37 t f f;
#X obj 77 59 == 0;
#X obj 77 15 r \$1/fx-1;
#X connect 0 0 3 0;
#X connect 0 0 4 0;
#X connect 3 0 1 0;
#X connect 4 0 2 0;
#X connect 5 0 6 0;
#X connect 5 1 4 1;
#X connect 6 0 3 1;
#X connect 7 0 5 0;
