#N canvas 446 315 482 544 10;
#X obj 155 136 delay 30000;
#N canvas 2 50 471 594 old-sync 0;
#X obj 12 32 route 0xe6;
#X obj 12 94 list split 1;
#X obj 52 119 sel 0x1;
#X obj 212 117 timer;
#X floatatom 212 139 5 0 0 0 - - -, f 5;
#X obj 12 54 t a b b;
#X obj 212 203 list-accum;
#X obj 212 158 moses 800;
#X floatatom 212 247 5 0 0 0 - - -, f 5;
#X floatatom 212 291 5 0 0 0 - - -, f 5;
#X obj 212 269 expr 60000 / $f1;
#X obj 212 181 gathern 10;
#X obj 212 225 / 10;
#X obj 52 223 timer;
#X obj 92 385 f;
#X obj 123 385 + 1;
#X msg 112 222 0;
#X floatatom 92 407 5 0 0 0 - - -, f 5;
#X obj 212 310 s clock/bpm;
#X obj 26 300 loadbang;
#X msg 26 322 bang;
#X obj 92 363 metro 333;
#X obj 52 201 t b b b b;
#X obj 52 141 t b b;
#X obj 84 163 s gba-sync;
#X obj 52 245 print bar time;
#X obj 92 426 pipe 30;
#X obj 12 10 #netreceive -u 42242;
#X obj 92 456 #s clock/tick;
#X connect 0 0 5 0;
#X connect 1 1 2 0;
#X connect 2 0 23 0;
#X connect 3 0 4 0;
#X connect 4 0 7 0;
#X connect 5 0 1 0;
#X connect 5 1 3 0;
#X connect 5 2 3 1;
#X connect 6 0 12 0;
#X connect 7 0 11 0;
#X connect 8 0 10 0;
#X connect 8 0 21 1;
#X connect 9 0 18 0;
#X connect 10 0 9 0;
#X connect 11 0 6 0;
#X connect 12 0 8 0;
#X connect 13 0 25 0;
#X connect 14 0 15 0;
#X connect 14 0 17 0;
#X connect 15 0 14 1;
#X connect 16 0 14 1;
#X connect 17 0 26 0;
#X connect 19 0 20 0;
#X connect 20 0 21 0;
#X connect 21 0 14 0;
#X connect 22 0 13 0;
#X connect 22 1 13 1;
#X connect 22 2 21 0;
#X connect 22 3 16 0;
#X connect 23 0 22 0;
#X connect 23 1 24 0;
#X connect 26 0 28 0;
#X connect 27 0 0 0;
#X restore 356 5 pd old-sync;
#X obj 250 143 timer;
#X floatatom 250 165 5 0 0 0 - - -, f 5;
#X obj 250 229 list-accum;
#X obj 250 184 moses 800;
#X floatatom 250 273 5 0 0 0 - - -, f 5;
#X floatatom 250 317 5 0 0 0 - - -, f 5;
#X obj 250 295 expr 60000 / $f1;
#X obj 250 207 gathern 10;
#X obj 250 251 / 10;
#X obj 108 422 f;
#X obj 139 422 + 1;
#X floatatom 108 444 5 0 0 0 - - -, f 5;
#X obj 108 493 s clock/tick;
#X obj 250 336 s clock/bpm;
#X obj 143 280 loadbang;
#X msg 143 302 bang;
#X obj 143 333 metro 333;
#X obj 135 5 netreceive -u 42242;
#X obj 135 54 route bang;
#X msg 155 158 1;
#X msg 169 108 0;
#X text 40 38 din sync \; trigger ->;
#X obj 108 463 pipe 35;
#X obj 143 365 spigot 1;
#X obj 302 142 s gba-sync;
#X obj 135 76 t b b b b b b;
#X obj 257 45 r sync-button;
#X obj 342 93 delay 1000;
#X msg 342 115 1;
#X msg 308 93 0;
#X obj 257 67 t b b b b b b b;
#X obj 409 67 * 2;
#X connect 0 0 21 0;
#X connect 2 0 3 0;
#X connect 3 0 5 0;
#X connect 4 0 10 0;
#X connect 5 0 9 0;
#X connect 6 0 8 0;
#X connect 6 0 18 1;
#X connect 6 0 33 0;
#X connect 7 0 15 0;
#X connect 8 0 7 0;
#X connect 9 0 4 0;
#X connect 10 0 6 0;
#X connect 11 0 12 0;
#X connect 11 0 13 0;
#X connect 12 0 11 1;
#X connect 13 0 24 0;
#X connect 16 0 17 0;
#X connect 17 0 18 0;
#X connect 18 0 25 0;
#X connect 19 0 20 0;
#X connect 20 0 27 0;
#X connect 21 0 25 1;
#X connect 22 0 25 1;
#X connect 24 0 14 0;
#X connect 25 0 11 0;
#X connect 27 0 11 0;
#X connect 27 1 0 0;
#X connect 27 2 22 0;
#X connect 27 3 2 0;
#X connect 27 4 2 1;
#X connect 27 5 26 0;
#X connect 28 0 32 0;
#X connect 29 0 30 0;
#X connect 30 0 25 1;
#X connect 31 0 25 1;
#X connect 32 0 18 0;
#X connect 32 1 2 0;
#X connect 32 2 2 1;
#X connect 32 3 18 0;
#X connect 32 4 31 0;
#X connect 32 5 29 0;
#X connect 32 6 11 0;
#X connect 33 0 29 1;
