#N canvas 897 1240 804 602 10;
#X obj 125 166 delay 30000;
#X obj 220 173 timer;
#X floatatom 220 195 5 0 0 0 - - -, f 5;
#X obj 220 279 list-accum;
#X obj 220 234 moses 800;
#X floatatom 220 323 5 0 0 0 - - -, f 5;
#X floatatom 220 367 5 0 0 0 - - -, f 5;
#X obj 220 345 expr 60000 / $f1;
#X obj 220 257 gathern 10;
#X obj 220 301 / 10;
#X obj 18 442 f;
#X obj 49 442 + 1;
#X floatatom 18 464 5 0 0 0 - - -, f 5;
#X obj 18 513 s clock/tick;
#X obj 220 386 s clock/bpm;
#X obj 113 310 loadbang;
#X msg 113 332 bang;
#X obj 113 363 metro 333;
#X obj 105 5 netreceive -u 42242;
#X obj 105 84 route bang;
#X msg 125 188 1;
#X msg 139 138 0;
#X text 10 68 din sync \; trigger ->;
#X obj 18 483 pipe 35;
#X obj 113 395 spigot 1;
#X obj 272 172 s gba-sync;
#X obj 105 106 t b b b b b b;
#X obj 227 75 r sync-button;
#X obj 312 123 delay 1000;
#X msg 312 145 1;
#X msg 278 123 0;
#X obj 227 97 t b b b b b b b;
#X obj 379 97 * 2;
#X obj 287 7 r sync-button;
#X obj 287 31 print sync-button-trigger;
#X obj 105 27 t a a;
#N canvas 2 50 450 300 printer 0;
#X obj 15 10 inlet;
#X obj 15 32 t b b;
#X obj 15 54 timer;
#X obj 15 76 print;
#X connect 0 0 1 0;
#X connect 1 0 2 0;
#X connect 1 1 2 1;
#X connect 2 0 3 0;
#X restore 137 53 pd printer;
#X obj 220 214 moses 150;
#X obj 284 460 r clock/tick;
#X obj 284 506 u_tick-multiplier 180 96;
#X obj 382 461 r clock/bpm;
#X msg 382 483 bpm \$1;
#X obj 284 528 s clock/subtick;
#X obj 356 344 s clock/ms;
#X obj 134 442 r clock/tick;
#X obj 174 467 r clock/ms;
#X obj 134 490 f;
#X msg 134 512 0 \, \$1 \$1;
#X msg 134 467 bang;
#X obj 134 534 line~;
#X obj 134 556 s~ clock/tick~;
#X obj 508 29 netreceive -u 31425;
#X obj 608 75 s gba-sync;
#X text 504 10 network based sync;
#X msg 542 80 0;
#X obj 508 49 t f b b b b b;
#X obj 530 121 delay 30000;
#X msg 530 143 1;
#X obj 508 189 s clock/tick;
#X connect 0 0 20 0;
#X connect 1 0 2 0;
#X connect 2 0 37 0;
#X connect 3 0 9 0;
#X connect 4 0 8 0;
#X connect 5 0 7 0;
#X connect 5 0 17 1;
#X connect 5 0 32 0;
#X connect 6 0 14 0;
#X connect 7 0 6 0;
#X connect 8 0 3 0;
#X connect 9 0 5 0;
#X connect 9 0 43 0;
#X connect 10 0 11 0;
#X connect 10 0 12 0;
#X connect 11 0 10 1;
#X connect 12 0 23 0;
#X connect 15 0 16 0;
#X connect 16 0 17 0;
#X connect 17 0 24 0;
#X connect 18 0 35 0;
#X connect 19 0 26 0;
#X connect 20 0 24 1;
#X connect 21 0 24 1;
#X connect 23 0 13 0;
#X connect 24 0 10 0;
#X connect 26 0 10 0;
#X connect 26 1 0 0;
#X connect 26 2 21 0;
#X connect 26 3 1 0;
#X connect 26 4 1 1;
#X connect 26 5 25 0;
#X connect 27 0 31 0;
#X connect 28 0 29 0;
#X connect 29 0 24 1;
#X connect 30 0 24 1;
#X connect 31 0 17 0;
#X connect 31 1 1 0;
#X connect 31 2 1 1;
#X connect 31 3 17 0;
#X connect 31 4 30 0;
#X connect 31 5 28 0;
#X connect 31 6 10 0;
#X connect 32 0 28 1;
#X connect 33 0 34 0;
#X connect 35 0 19 0;
#X connect 37 1 4 0;
#X connect 38 0 39 0;
#X connect 39 0 42 0;
#X connect 40 0 41 0;
#X connect 41 0 39 0;
#X connect 44 0 48 0;
#X connect 45 0 46 1;
#X connect 46 0 47 0;
#X connect 47 0 49 0;
#X connect 48 0 46 0;
#X connect 49 0 50 0;
#X connect 51 0 55 0;
#X connect 54 0 24 1;
#X connect 55 0 58 0;
#X connect 55 1 56 0;
#X connect 55 2 54 0;
#X connect 55 3 1 0;
#X connect 55 4 1 1;
#X connect 55 5 52 0;
#X connect 56 0 57 0;
#X connect 57 0 24 1;
