#N canvas 596 433 450 544 10;
#X obj 12 10 netreceive -u 42242;
#X obj 12 32 route 0xe6;
#X obj 12 94 list split 1;
#X obj 52 119 sel 0x1;
#X obj 212 117 timer;
#X floatatom 212 139 5 0 0 0 - - -, f 5;
#X obj 12 54 t a b b;
#X obj 212 203 list-accum;
#X obj 212 158 moses 800;
#X floatatom 212 247 5 0 0 0 - - -, f 5;
#X text 303 15 lol horrendous;
#X floatatom 212 291 5 0 0 0 - - -, f 5;
#X obj 212 269 expr 60000 / $f1;
#X obj 212 181 gathern 10;
#X obj 212 225 / 10;
#X obj 52 193 timer;
#X obj 92 385 f;
#X obj 123 385 + 1;
#X msg 112 192 0;
#X floatatom 92 407 5 0 0 0 - - -, f 5;
#X obj 92 456 s clock/tick;
#X obj 212 310 s clock/bpm;
#X obj 92 426 pipe 60;
#X obj 26 300 loadbang;
#X msg 26 322 bang;
#X obj 92 363 metro 333;
#X obj 52 171 t b b b b;
#X obj 52 141 t b b;
#X obj 104 141 s gba-sync;
#X obj 52 215 print bar time;
#X connect 0 0 1 0;
#X connect 1 0 6 0;
#X connect 2 1 3 0;
#X connect 3 0 27 0;
#X connect 4 0 5 0;
#X connect 5 0 8 0;
#X connect 6 0 2 0;
#X connect 6 1 4 0;
#X connect 6 2 4 1;
#X connect 7 0 14 0;
#X connect 8 0 13 0;
#X connect 9 0 12 0;
#X connect 9 0 25 1;
#X connect 11 0 21 0;
#X connect 12 0 11 0;
#X connect 13 0 7 0;
#X connect 14 0 9 0;
#X connect 15 0 29 0;
#X connect 16 0 17 0;
#X connect 16 0 19 0;
#X connect 17 0 16 1;
#X connect 18 0 16 1;
#X connect 19 0 22 0;
#X connect 22 0 20 0;
#X connect 23 0 24 0;
#X connect 24 0 25 0;
#X connect 25 0 16 0;
#X connect 26 0 15 0;
#X connect 26 1 15 1;
#X connect 26 2 25 0;
#X connect 26 3 18 0;
#X connect 27 0 26 0;
#X connect 27 1 28 0;
