#N canvas 543 654 450 300 10;
#X obj 9 96 hid 0;
#X obj 9 10 loadbang;
#X obj 9 118 route key;
#X obj 9 190 s KEYBOARD;
#X obj 9 140 t a a;
#X obj 41 164 print keyboard;
#X msg 217 65 open 0x04d9 0x1203 \, 10;
#X msg 9 52 open 0 \, 10;
#X msg 107 52 open 1 \, 10;
#X obj 58 96 hid 0;
#X connect 0 0 2 0;
#X connect 1 0 7 0;
#X connect 1 0 8 0;
#X connect 2 0 4 0;
#X connect 4 0 3 0;
#X connect 4 1 5 0;
#X connect 7 0 0 0;
#X connect 8 0 9 0;
#X connect 9 0 2 0;
