#N canvas 142 504 469 412 10;
#X obj 49 173 t l;
#X obj 9 150 list split 2;
#X msg 9 77 bang;
#X obj 9 194 list split 1;
#X obj 9 241 list;
#X obj 9 102 list append \$1 \$2 \$3 \$4 \$5 \$6 \$7 \$8 \$9 \$10 \$11
\$12 \$13 \$14 \$15 \$16 \$17 \$18 \$19 \$20 \$21 \$22 \$23 \$24 \$25
\$26 \$27 \$28 \$29 \$30 \$31 \$32;
#X obj 9 38 t a a;
#X obj 125 59 list split 1;
#X obj 9 263 list append;
#X obj 9 285 outlet;
#X obj 9 219 sel bang;
#X obj 9 14 r KEYBOARD;
#X connect 0 0 1 0;
#X connect 1 0 3 0;
#X connect 1 1 0 0;
#X connect 2 0 5 0;
#X connect 3 0 10 0;
#X connect 3 1 4 1;
#X connect 4 0 8 0;
#X connect 5 0 1 0;
#X connect 6 0 2 0;
#X connect 6 1 7 0;
#X connect 7 0 10 1;
#X connect 7 1 8 1;
#X connect 8 0 9 0;
#X connect 10 0 4 0;
#X connect 11 0 6 0;
