#N canvas 748 183 450 300 10;
#X obj 9 56 hid 0;
#X msg 9 33 open 1 \, 25;
#X obj 9 78 route key;
#X obj 9 100 print;
#X obj 9 10 loadbang;
#X connect 0 0 2 0;
#X connect 1 0 0 0;
#X connect 2 0 3 0;
#X connect 4 0 1 0;
