#N canvas 184 47 1035 933 10;
#X declare -path ./patches/lib/lolPd;
#X declare -path ./patches/lib/list-abs;
#X declare -path ./patches/lib/s-abstractions/trunk;
#X declare -path ./patches/lib/pd-midi-guis;
#X obj 35 19 s-midimonitor;
#X obj 40 138 vsl 15 128 0 1 0 0 empty mix/mixer/0/vol empty 0 -9 0
10 -262144 -1 -1 0 1;
#X obj 60 138 vsl 15 128 0 1 0 0 empty mix/mixer/1/vol empty 0 -9 0
10 -262144 -1 -1 0 1;
#X obj 80 138 vsl 15 128 0 1 0 0 empty mix/mixer/2/vol empty 0 -9 0
10 -262144 -1 -1 0 1;
#X obj 100 138 vsl 15 128 0 1 0 0 empty mix/mixer/3/vol empty 0 -9
0 10 -262144 -1 -1 0 1;
#X obj 120 138 vsl 15 128 0 1 0 0 empty mix/mixer/4/vol empty 0 -9
0 10 -262144 -1 -1 0 1;
#X obj 140 138 vsl 15 128 0 1 0 0 empty mix/mixer/5/vol empty 0 -9
0 10 -262144 -1 -1 0 1;
#X obj 161 138 vsl 15 128 0 1 0 0 empty mix/mixer/6/vol empty 0 -9
0 10 -262144 -1 -1 0 1;
#X obj 169 19 g_midi_settings;
#X obj 169 85 g_midi_toggle CYCLE;
#X text 256 90 CYCLE;
#N canvas 1084 314 551 445 snatcher 1;
#X obj 37 47 hradio 15 1 0 5 empty empty empty 0 -8 0 10 -262144 -1
-1 0;
#X obj 37 67 - 1;
#X obj 37 89 s mix/mixer/0/snatch;
#X msg 323 178 -1;
#X obj 411 157 t b f;
#X obj 323 156 sel 0 1;
#X obj 411 180 0;
#X obj 323 134 r snatch-down;
#X obj 411 135 r snatch-val;
#X floatatom 323 214 5 0 0 0 - - -, f 5;
#X text 224 9 sound snatcher;
#X obj 122 127 s-midictl 61;
#X obj 208 127 s-midictl 62;
#X obj 36 213 pack f f f;
#X obj 122 179 t b f;
#X obj 208 179 t b f;
#X obj 36 149 / 127;
#X obj 122 149 / 127;
#X obj 208 149 / 127;
#X obj 36 235 expr $f1 + $f2 * 2 + $f3 * 4;
#X obj 36 257 - 1;
#X obj 36 285 fx-looper CYCLE;
#X obj 36 127 s-midictl 60;
#X obj 36 318 t a a a;
#X msg 36 388 \; left/snatch \$1 \;;
#X msg 156 388 \; right/snatch \$1 \;;
#X msg 286 388 \; arp/snatch \$1 \;;
#X connect 0 0 1 0;
#X connect 1 0 2 0;
#X connect 3 0 9 0;
#X connect 4 0 6 0;
#X connect 4 1 6 1;
#X connect 5 0 3 0;
#X connect 5 1 6 0;
#X connect 6 0 9 0;
#X connect 7 0 5 0;
#X connect 8 0 4 0;
#X connect 11 0 17 0;
#X connect 12 0 18 0;
#X connect 13 0 19 0;
#X connect 14 0 13 0;
#X connect 14 1 13 1;
#X connect 15 0 13 0;
#X connect 15 1 13 2;
#X connect 16 0 13 0;
#X connect 17 0 14 0;
#X connect 18 0 15 0;
#X connect 19 0 20 0;
#X connect 20 0 21 0;
#X connect 21 0 23 0;
#X connect 22 0 16 0;
#X connect 23 0 24 0;
#X connect 23 1 25 0;
#X connect 23 2 26 0;
#X restore 389 304 pd snatcher;
#N canvas 1254 73 450 300 acid-mapper 0;
#X obj 14 16 g_midi_slider mix/acid/5/param-2-pre;
#X obj 14 96 g_midi_button mix/acid/5/rez-set;
#X obj 14 51 g_midi_slider fx-2/distortion;
#X text 220 20 mix/acid/5/param-2-pre;
#X text 220 52 fx-2/distortion;
#X text 113 100 mix/acid/5/rez-set;
#X obj 14 162 r mix/acid/5/param-2-pre;
#X obj 14 184 midi-single-looper;
#X obj 14 206 s mix/acid/5/param-2;
#X connect 6 0 7 0;
#X connect 7 0 8 0;
#X restore 874 142 pd acid-mapper;
#N canvas 1330 108 450 300 fx-2-mapper 0;
#X obj 28 24 g_midi_slider fx-2/fx-1-pre;
#X obj 28 56 g_midi_slider fx-2/fx-2-pre;
#X text 233 25 fx-2/fx-1-pre;
#X text 239 58 fx-2/fx-2-pre;
#X obj 32 120 r fx-2/fx-1-pre;
#X obj 32 142 midi-single-looper;
#X obj 32 164 s fx-2/fx-1;
#X obj 188 143 midi-single-looper;
#X obj 188 121 r fx-2/fx-2-pre;
#X obj 188 165 s fx-2/fx-2;
#X connect 4 0 5 0;
#X connect 5 0 6 0;
#X connect 7 0 9 0;
#X connect 8 0 7 0;
#X restore 875 166 pd fx-2-mapper;
#X obj 770 22 declare -path ./patches/lib/lolPd;
#X obj 749 44 declare -path ./patches/lib/list-abs;
#X obj 666 88 declare -path ./patches/lib/s-abstractions/trunk;
#X obj 722 66 declare -path ./patches/lib/pd-midi-guis;
#X obj 793 341 g_midi_toggle arp-loop;
#X text 789 320 arp-loop;
#X obj 27 569 midi-mapper-ctl 0 1;
#X msg 27 591 \; left/volume \$2;
#X msg 27 651 \; right/volume \$2;
#X msg 27 711 \; arp/volume \$2;
#X text 24 546 volume sliders;
#X obj 586 174 r gba-sync;
#X obj 586 196 t b b;
#X msg 586 248 127;
#X obj 586 290 ctlout 41 1;
#X obj 618 220 delay 30000;
#X msg 618 242 0;
#X text 184 546 snatch button;
#X msg 187 591 \; left/snatch-enable \$2;
#X msg 187 651 \; right/snatch-enable \$2;
#X msg 187 711 \; arp/snatch-enable \$2;
#X obj 756 269 ctlout 42 1;
#X obj 756 175 r clock/tick;
#X obj 756 220 f;
#X obj 786 220 == 0;
#X obj 756 242 * 127;
#X msg 756 197 bang;
#X obj 187 569 midi-mapper-button 48 49;
#X obj 187 629 midi-mapper-button 49 50;
#X obj 187 689 midi-mapper-button 50 51;
#X text 404 546 fx-1 button;
#X obj 407 569 midi-mapper-button 32 33;
#X msg 407 591 \; left/fx-1 \$2;
#X obj 407 629 midi-mapper-button 33 34;
#X obj 407 689 midi-mapper-button 34 35;
#X msg 407 651 \; right/fx-1 \$2;
#X msg 407 711 \; arp/fx-1 \$2;
#X text 584 145 gba sync indicators;
#X text 38 307 fx-1 parameters;
#X text 39 451 fx-1 vol;
#X obj 193 437 g_midi_radio fx-1/select 4;
#X text 193 414 fx-1/select;
#X obj 39 350 list split 1;
#X obj 39 372 + 1;
#X obj 39 394 list append;
#X msg 28 810 \; arp-loop/volume \$2;
#X text 219 307 fx-1/down-pre;
#X obj 224 326 g_midi_toggle fx-1/down-pre;
#X obj 79 372 + 0;
#X text 400 147 c64 paddle;
#X obj 402 171 ctlin 0 18;
#X obj 402 250 s arp-cutoff;
#X msg 402 193 \$1 10;
#X obj 402 215 line;
#X obj 791 387 g_midi_slider arp-cutoff;
#X obj 42 479 g_midi_slider fx-1/volume;
#X text 789 369 arp-cutoff;
#X obj 791 440 g_midi_slider arp-reverb;
#X text 787 421 arp-reverb;
#X obj 410 787 midi-mapper-button 39 40;
#X msg 410 811 \; arp-loop/fx-1 \$2;
#X text 826 651 paddle;
#X text 787 677 arp-cutoff;
#X obj 789 823 t f f;
#X obj 789 885 ctlout 71 1;
#X msg 821 848 \; arp-loop \$1;
#X obj 788 700 ctlin 0 2;
#X obj 789 801 ctlin 1 2;
#X msg 788 722 \; arp-cutoff \$1 \; arp-cutoff/r \$1 \;;
#X obj 868 700 ctlin 0 18;
#X obj 869 801 ctlin 1 18;
#X obj 27 629 midi-mapper-ctl 1 2;
#X obj 27 689 midi-mapper-ctl 2 3;
#X obj 39 328 midi-mapper-ctl 21 23;
#X text 790 472 arp-tuning;
#X obj 790 492 g_midi_slider arp-tuning;
#X obj 187 788 midi-mapper-button 55 56;
#X msg 187 810 \; arp-loop/snatch-enable \$2;
#X obj 28 788 midi-mapper-ctl 7 8;
#X obj 575 359 ctlin 41 1;
#X obj 575 381 sel 127;
#X obj 575 403 s sync-button;
#X obj 225 375 g_midi_toggle fx-1/loop;
#X text 218 355 fx-1/loop;
#X msg 39 416 \; fx-1/fx-pre-\$1 \$2;
#X connect 20 0 21 0;
#X connect 25 0 26 0;
#X connect 26 0 27 0;
#X connect 26 1 29 0;
#X connect 27 0 28 0;
#X connect 29 0 30 0;
#X connect 30 0 28 0;
#X connect 36 0 40 0;
#X connect 37 0 38 0;
#X connect 37 0 39 0;
#X connect 38 0 37 1;
#X connect 39 0 35 0;
#X connect 40 0 37 0;
#X connect 41 0 32 0;
#X connect 42 0 33 0;
#X connect 43 0 34 0;
#X connect 45 0 46 0;
#X connect 47 0 49 0;
#X connect 48 0 50 0;
#X connect 56 0 57 0;
#X connect 56 1 62 0;
#X connect 57 0 58 0;
#X connect 58 0 98 0;
#X connect 62 0 58 1;
#X connect 64 0 66 0;
#X connect 66 0 67 0;
#X connect 67 0 65 0;
#X connect 73 0 74 0;
#X connect 77 0 78 0;
#X connect 77 1 79 0;
#X connect 80 0 82 0;
#X connect 81 0 77 0;
#X connect 83 0 82 0;
#X connect 84 0 77 0;
#X connect 85 0 22 0;
#X connect 86 0 23 0;
#X connect 87 0 56 0;
#X connect 90 0 91 0;
#X connect 92 0 59 0;
#X connect 93 0 94 0;
#X connect 94 0 95 0;
