#N canvas 320 124 450 300 10;
#X obj 15 177 spigot;
#X obj 31 110 t f f;
#X obj 31 138 expr $f1 < \$2 && $f1 >= \$1;
#X obj 37 210 swap;
#X obj 37 232 pack f f;
#X obj 37 254 outlet;
#X obj 68 179 - \$1;
#X obj 227 19 loadbang;
#X obj 227 41 list append \$1 \$2;
#X obj 227 63 expr $f2 - $f1;
#X obj 227 85 until;
#X obj 253 107 + 1;
#X obj 227 151 t b f f;
#X msg 227 173 0;
#X obj 259 173 + \$1;
#X obj 351 144 print midi-init;
#X obj 227 107 0;
#X obj 16 13 ctlin;
#X obj 16 35 list append;
#X obj 134 35 == 1;
#X obj 16 80 list split 1;
#X obj 16 58 spigot 0;
#X connect 0 0 3 0;
#X connect 1 0 2 0;
#X connect 1 1 6 0;
#X connect 2 0 0 1;
#X connect 3 0 4 0;
#X connect 3 1 4 1;
#X connect 4 0 5 0;
#X connect 6 0 3 1;
#X connect 7 0 8 0;
#X connect 8 0 9 0;
#X connect 9 0 10 0;
#X connect 10 0 16 0;
#X connect 11 0 16 1;
#X connect 12 0 13 0;
#X connect 12 1 14 0;
#X connect 12 2 11 0;
#X connect 13 0 0 0;
#X connect 14 0 1 0;
#X connect 14 0 15 0;
#X connect 16 0 12 0;
#X connect 17 0 18 0;
#X connect 17 1 18 1;
#X connect 17 2 19 0;
#X connect 18 0 21 0;
#X connect 19 0 21 1;
#X connect 20 0 0 0;
#X connect 20 1 1 0;
#X connect 21 0 20 0;
