#N canvas 254 53 1035 933 10;
#X declare -path ./patches/lib/lolPd;
#X declare -path ./patches/lib/list-abs;
#X declare -path ./patches/lib/s-abstractions/trunk;
#X declare -path ./patches/lib/pd-midi-guis;
#X obj 35 19 s-midimonitor;
#X obj 40 138 vsl 15 128 0 1 0 0 empty mix/mixer/0/vol empty 0 -9 0
10 -262144 -1 -1 0 1;
#X obj 60 138 vsl 15 128 0 1 0 0 empty mix/mixer/1/vol empty 0 -9 0
10 -262144 -1 -1 0 1;
#X obj 80 138 vsl 15 128 0 1 0 0 empty mix/mixer/2/vol empty 0 -9 0
10 -262144 -1 -1 0 1;
#X obj 100 138 vsl 15 128 0 1 0 0 empty mix/mixer/3/vol empty 0 -9
0 10 -262144 -1 -1 0 1;
#X obj 120 138 vsl 15 128 0 1 0 0 empty mix/mixer/4/vol empty 0 -9
0 10 -262144 -1 -1 0 1;
#X obj 140 138 vsl 15 128 0 1 0 0 empty mix/mixer/5/vol empty 0 -9
0 10 -262144 -1 -1 0 1;
#X obj 161 138 vsl 15 128 0 1 0 0 empty mix/mixer/6/vol empty 0 -9
0 10 -262144 -1 -1 0 1;
#X obj 169 19 g_midi_settings;
#X obj 169 85 g_midi_toggle CYCLE;
#X text 256 90 CYCLE;
#N canvas 1080 290 551 445 snatcher 0;
#X obj 37 47 hradio 15 1 0 5 empty empty empty 0 -8 0 10 -262144 -1
-1 0;
#X obj 37 67 - 1;
#X obj 37 89 s mix/mixer/0/snatch;
#X msg 323 178 -1;
#X obj 411 157 t b f;
#X obj 323 156 sel 0 1;
#X obj 411 180 0;
#X obj 323 134 r snatch-down;
#X obj 411 135 r snatch-val;
#X floatatom 323 214 5 0 0 0 - - -, f 5;
#X text 224 9 sound snatcher;
#X obj 122 127 s-midictl 61;
#X obj 208 127 s-midictl 62;
#X obj 36 213 pack f f f;
#X obj 122 179 t b f;
#X obj 208 179 t b f;
#X obj 36 149 / 127;
#X obj 122 149 / 127;
#X obj 208 149 / 127;
#X obj 36 235 expr $f1 + $f2 * 2 + $f3 * 4;
#X obj 36 257 - 1;
#X obj 36 285 fx-looper CYCLE;
#X obj 36 127 s-midictl 60;
#X obj 36 318 t a a a;
#X msg 36 388 \; left/snatch \$1 \;;
#X msg 156 388 \; right/snatch \$1 \;;
#X msg 286 388 \; arp/snatch \$1 \;;
#X connect 0 0 1 0;
#X connect 1 0 2 0;
#X connect 3 0 9 0;
#X connect 4 0 6 0;
#X connect 4 1 6 1;
#X connect 5 0 3 0;
#X connect 5 1 6 0;
#X connect 6 0 9 0;
#X connect 7 0 5 0;
#X connect 8 0 4 0;
#X connect 11 0 17 0;
#X connect 12 0 18 0;
#X connect 13 0 19 0;
#X connect 14 0 13 0;
#X connect 14 1 13 1;
#X connect 15 0 13 0;
#X connect 15 1 13 2;
#X connect 16 0 13 0;
#X connect 17 0 14 0;
#X connect 18 0 15 0;
#X connect 19 0 20 0;
#X connect 20 0 21 0;
#X connect 21 0 23 0;
#X connect 22 0 16 0;
#X connect 23 0 24 0;
#X connect 23 1 25 0;
#X connect 23 2 26 0;
#X restore 394 324 pd snatcher;
#X obj 770 22 declare -path ./patches/lib/lolPd;
#X obj 749 44 declare -path ./patches/lib/list-abs;
#X obj 666 88 declare -path ./patches/lib/s-abstractions/trunk;
#X obj 722 66 declare -path ./patches/lib/pd-midi-guis;
#X obj 818 576 g_midi_toggle arp-loop;
#X text 814 555 arp-loop;
#X obj 27 569 midi-mapper-ctl 0 1;
#X msg 27 591 \; left/volume \$2;
#X msg 27 651 \; right/volume \$2;
#X msg 27 711 \; arp/volume \$2;
#X text 24 546 volume sliders;
#X obj 586 174 r gba-sync;
#X obj 586 196 t b b;
#X msg 586 248 127;
#X obj 586 290 ctlout 41 1;
#X obj 618 220 delay 30000;
#X msg 618 242 0;
#X text 184 546 snatch button;
#X msg 187 591 \; left/snatch-enable \$2;
#X msg 187 651 \; right/snatch-enable \$2;
#X msg 187 711 \; arp/snatch-enable \$2;
#X obj 756 269 ctlout 42 1;
#X obj 756 175 r clock/tick;
#X obj 756 220 f;
#X obj 786 220 == 0;
#X obj 756 242 * 127;
#X msg 756 197 bang;
#X obj 187 569 midi-mapper-button 48 49;
#X obj 187 629 midi-mapper-button 49 50;
#X obj 187 689 midi-mapper-button 50 51;
#X text 404 546 fx-1 button;
#X obj 407 569 midi-mapper-button 32 33;
#X msg 407 591 \; left/fx-1 \$2;
#X obj 407 629 midi-mapper-button 33 34;
#X obj 407 689 midi-mapper-button 34 35;
#X msg 407 651 \; right/fx-1 \$2;
#X msg 407 711 \; arp/fx-1 \$2;
#X text 584 145 gba sync indicators;
#X text 38 307 fx-1 parameters;
#X text 39 451 fx-1 vol;
#X obj 193 437 g_midi_radio fx-1/select 4;
#X text 193 414 fx-1/select;
#X obj 39 350 list split 1;
#X obj 39 372 + 1;
#X obj 39 394 list append;
#X msg 28 880 \; arp-loop/volume \$2;
#X text 219 307 fx-1/down-pre;
#X obj 224 326 g_midi_toggle fx-1/down-pre;
#X obj 79 372 + 0;
#X obj 816 622 g_midi_slider arp-cutoff;
#X obj 42 479 g_midi_slider fx-1/volume;
#X text 814 604 arp-cutoff;
#X obj 816 675 g_midi_slider arp-reverb;
#X text 812 656 arp-reverb;
#X obj 410 857 midi-mapper-button 39 40;
#X msg 410 881 \; arp-loop/fx-1 \$2;
#X obj 27 629 midi-mapper-ctl 1 2;
#X obj 27 689 midi-mapper-ctl 2 3;
#X obj 39 328 midi-mapper-ctl 21 23;
#X text 815 707 arp-tuning;
#X obj 187 858 midi-mapper-button 55 56;
#X msg 187 880 \; arp-loop/snatch-enable \$2;
#X obj 28 858 midi-mapper-ctl 7 8;
#X obj 461 179 ctlin 41 1;
#X obj 461 201 sel 127;
#X obj 461 223 s sync-button;
#X obj 225 375 g_midi_toggle fx-1/loop;
#X text 218 355 fx-1/loop;
#X msg 39 416 \; fx-1/fx-pre-\$1 \$2;
#N canvas 546 220 1133 689 acid-control 0;
#X obj 34 86 hsl 128 15 0 127 0 1 acid/rez empty acid/rez -2 -8 0 10
-262144 -1 -1 1000 1;
#X obj 35 151 hsl 128 15 0 300 0 0 acid/decay acid/decay/set acid/decay
-2 -8 0 10 -262144 -1 -1 6562 1;
#X obj 35 121 hsl 128 15 0 1 0 0 acid/swing acid/swing/set acid/swing
-2 -8 0 10 -262144 -1 -1 0 1;
#X obj 115 33 hradio 15 1 0 2 acid/wave acid/wave/set sqr/saw 0 -8
0 10 -262144 -1 -1 1;
#X msg 583 282 \; acid/seed \$1 \; acid/makenew bang \;;
#X obj 212 208 s acid/tick;
#X obj 32 33 hsl 64 15 1 20 0 1 acid/distortion empty distortion -2
-8 0 10 -262144 -1 -1 0 1;
#X obj 212 18 r clock/subtick;
#X obj 212 83 / 48;
#X obj 212 105 int;
#X obj 212 127 change;
#X msg 583 105 bang;
#X obj 583 236 t a a;
#X obj 615 259 print SEED;
#X obj 583 162 timer;
#X obj 782 35 g_midi_slider acid/cutoff/pre;
#X text 780 16 acid/cutoff/pre;
#X obj 583 127 t b b;
#X obj 583 184 * 10;
#X obj 583 209 mod 100000;
#X text 86 260 volume;
#X text 27 242 fx;
#X text 26 313 LOOPING;
#X text 28 259 sticky;
#X obj 397 45 r magic/scale;
#X obj 397 129 t a a;
#X obj 397 151 list length;
#X obj 397 174 > 1;
#X text 28 276 loop;
#X text 85 240 cutoff*;
#X text 225 239 rez/swing/decay/dist;
#X text 225 255 octave/rate;
#X text 177 256 swing;
#X text 177 239 decay;
#X text 176 272 dist;
#X obj 397 218 list;
#X obj 397 240 list prepend 0;
#X obj 397 196 sel 1;
#X obj 397 264 filltable acid/notes;
#X text 779 67 acid/octaverate/pre;
#X text 777 123 acid/controls/pre;
#X obj 783 144 g_midi_slider acid/controls/pre;
#X obj 17 336 r acid/cutoff/pre;
#X obj 17 402 s acid/cutoff;
#X text 775 176 acid/new;
#X obj 781 199 g_midi_button acid/new;
#X obj 551 23 r acid/new;
#X obj 551 45 sel 127;
#X obj 551 67 t b b;
#X obj 397 106 list;
#X obj 253 333 r acid/octaverate/pre;
#X obj 871 347 r acid/controls/pre;
#X obj 871 369 s acid/rez;
#X obj 237 62 * 24;
#X obj 237 40 r acid/pace;
#X obj 253 507 fx-looper acid/octaveloop;
#X obj 253 355 auto-fx-looper acid/octaveloop;
#X obj 17 380 fx-looper acid/cutoffloop;
#X obj 17 358 auto-fx-looper acid/cutoffloop;
#X obj 283 125 r clock/tick;
#X obj 212 179 + 0;
#X obj 265 149 f;
#X text 776 229 acid/octave-or-rate;
#X obj 782 89 g_midi_slider acid/octaverate/pre;
#X obj 782 248 g_midi_button acid/octave-or-rate;
#X obj 444 507 fx-looper acid/octaveloop;
#X obj 253 457 list prepend;
#X obj 334 382 r acid/octave-or-rate;
#X obj 444 529 / 127;
#X obj 444 551 * 4;
#X obj 444 573 int;
#X obj 444 595 change;
#X obj 444 617 - 2;
#X obj 444 661 s acid/pace;
#X obj 444 639 expr pow(2 \, -1 * $f1);
#X obj 253 529 / 127;
#X obj 253 551 * 4;
#X obj 253 573 int;
#X obj 253 595 change;
#X obj 253 617 - 2;
#X obj 253 639 s acid/globaloctave;
#X obj 253 479 route 0 127;
#X obj 365 460 sel 0;
#X obj 253 437 f;
#X msg 365 482 55;
#X obj 334 404 t f f f;
#X obj 310 427 sel 127;
#X connect 7 0 8 0;
#X connect 8 0 9 0;
#X connect 9 0 10 0;
#X connect 10 0 60 0;
#X connect 11 0 17 0;
#X connect 12 0 4 0;
#X connect 12 1 13 0;
#X connect 14 0 18 0;
#X connect 17 0 61 0;
#X connect 17 1 14 1;
#X connect 18 0 19 0;
#X connect 19 0 12 0;
#X connect 24 0 49 0;
#X connect 25 0 26 0;
#X connect 25 1 35 1;
#X connect 26 0 27 0;
#X connect 27 0 37 0;
#X connect 35 0 36 0;
#X connect 36 0 38 0;
#X connect 37 0 35 0;
#X connect 42 0 58 0;
#X connect 46 0 47 0;
#X connect 47 0 48 0;
#X connect 48 0 49 0;
#X connect 48 1 11 0;
#X connect 49 0 25 0;
#X connect 50 0 56 0;
#X connect 51 0 52 0;
#X connect 53 0 8 1;
#X connect 54 0 53 0;
#X connect 55 0 75 0;
#X connect 56 0 83 0;
#X connect 57 0 43 0;
#X connect 58 0 57 0;
#X connect 59 0 61 1;
#X connect 60 0 5 0;
#X connect 61 0 60 1;
#X connect 65 0 68 0;
#X connect 66 0 81 0;
#X connect 67 0 85 0;
#X connect 68 0 69 0;
#X connect 69 0 70 0;
#X connect 70 0 71 0;
#X connect 71 0 72 0;
#X connect 72 0 74 0;
#X connect 74 0 73 0;
#X connect 75 0 76 0;
#X connect 76 0 77 0;
#X connect 77 0 78 0;
#X connect 78 0 79 0;
#X connect 79 0 80 0;
#X connect 81 0 55 0;
#X connect 81 1 65 0;
#X connect 82 0 84 0;
#X connect 83 0 66 0;
#X connect 84 0 65 0;
#X connect 85 0 86 0;
#X connect 85 1 82 0;
#X connect 85 2 66 1;
#X connect 86 0 83 0;
#X restore 394 358 pd acid-control;
#X obj 816 732 g_midi_toggle arp/tuning/pre;
#X obj 814 767 r arp/tuning/pre;
#X obj 814 811 s arp-tuning;
#X text 460 151 bpm tap;
#X obj 814 789 / 2;
#X obj 27 749 midi-mapper-ctl 3 4;
#X msg 27 771 \; acid/volume \$2;
#X obj 187 751 midi-mapper-button 51 52;
#X msg 187 773 \; acid/snatch-enable \$2;
#X msg 407 774 \; acid/fx-1 \$2;
#X obj 407 752 midi-mapper-button 35 36;
#X text 576 346 fx/mini;
#X obj 579 372 g_midi_button fx-mini/button/left;
#X obj 579 408 g_midi_button fx-mini/button/right;
#X obj 669 372 g_midi_slider fx-mini/knob/left;
#X obj 670 408 g_midi_slider fx-mini/knob/right;
#X obj 899 169 ctlin 45 1;
#X obj 900 269 r record;
#X obj 900 291 * 127;
#X obj 899 191 sel 127;
#X obj 899 216 tgl 15 0 empty empty empty 17 7 0 10 -262144 -1 -1 0
1;
#X obj 899 236 s record;
#X obj 900 318 ctlout 45 1;
#X text 897 145 record button;
#X msg 351 429 \; fx-1/fx-pre-1 1 \; fx-1/fx-pre-1 64 \; fx-1/fx-pre-2
1 \; fx-1/fx-pre-2 64 \; fx-1/down-pre 1 \; fx-1/down-pre 0 \;;
#X obj 351 404 loadbang;
#X text 418 404 start fx on;
#X connect 18 0 19 0;
#X connect 23 0 24 0;
#X connect 24 0 25 0;
#X connect 24 1 27 0;
#X connect 25 0 26 0;
#X connect 27 0 28 0;
#X connect 28 0 26 0;
#X connect 34 0 38 0;
#X connect 35 0 36 0;
#X connect 35 0 37 0;
#X connect 36 0 35 1;
#X connect 37 0 33 0;
#X connect 38 0 35 0;
#X connect 39 0 30 0;
#X connect 40 0 31 0;
#X connect 41 0 32 0;
#X connect 43 0 44 0;
#X connect 45 0 47 0;
#X connect 46 0 48 0;
#X connect 54 0 55 0;
#X connect 54 1 60 0;
#X connect 55 0 56 0;
#X connect 56 0 80 0;
#X connect 60 0 56 1;
#X connect 66 0 67 0;
#X connect 68 0 20 0;
#X connect 69 0 21 0;
#X connect 70 0 54 0;
#X connect 72 0 73 0;
#X connect 74 0 57 0;
#X connect 75 0 76 0;
#X connect 76 0 77 0;
#X connect 83 0 86 0;
#X connect 86 0 84 0;
#X connect 87 0 88 0;
#X connect 89 0 90 0;
#X connect 92 0 91 0;
#X connect 98 0 101 0;
#X connect 99 0 100 0;
#X connect 100 0 104 0;
#X connect 101 0 102 0;
#X connect 102 0 103 0;
#X connect 107 0 106 0;
