#N struct 1009-f float x;
#N canvas 579 61 886 494 10;
#X declare -path ./patches;
#X declare -path ./patches/lib;
#X declare -path ./patches/lib/lolPd;
#X declare -path ./patches/lib/rjlib/rj;
#X declare -path ./patches/lib/list-abs;
#X declare -path ./patches/lib/s-abstractions/trunk;
#X declare -path ./patches/lib/pd-midi-guis;
#X declare -path ./patches/lib/blockhead;
#X obj 17 9 adc~ 1 2 3 4;
#X obj 287 411 dac~ 1 2 3 4;
#X obj 787 42 loadbang;
#X msg 787 64 \; pd dsp 1;
#X obj 626 82 6581-hum;
#N canvas 1148 356 450 300 keyboard 0;
#X obj 16 79 key-map key_comma -1 key_dot 1;
#X obj 16 211 print filter;
#X obj 16 264 print mod;
#N canvas 615 438 450 420 process-keys 0;
#X obj 19 15 inlet;
#X obj 19 37 t a a;
#X obj 51 60 print key;
#X obj 19 82 swap;
#X obj 19 114 pack f f;
#X obj 19 136 route 0 1 2;
#X obj 68 162 list append;
#X obj 68 338 list;
#X obj 68 285 list-unique;
#X obj 19 249 list-filter;
#X obj 107 249 != -1;
#X obj 68 307 list-sort;
#X obj 19 224 list;
#X obj 19 188 t b f;
#X obj 68 390 s \$0/notes;
#X connect 0 0 1 0;
#X connect 1 0 3 0;
#X connect 3 0 4 0;
#X connect 3 1 4 1;
#X connect 4 0 5 0;
#X connect 5 0 13 0;
#X connect 5 1 6 0;
#X connect 5 2 6 0;
#X connect 6 0 8 0;
#X connect 7 0 6 1;
#X connect 7 0 12 1;
#X connect 7 0 14 0;
#X connect 8 0 11 0;
#X connect 9 0 7 0;
#X connect 9 1 10 0;
#X connect 10 0 9 1;
#X connect 11 0 7 0;
#X connect 12 0 9 0;
#X connect 13 0 12 0;
#X connect 13 1 10 1;
#X restore 16 46 pd process-keys;
#X obj 16 11 key-map key_z 0 key_s 1 key_x 2 key_d 3 key_c 4 key_v
5 key_g 6 key_b 7 key_h 8 key_n 9 key_j 10 key_m 11;
#X obj 16 134 key-map key_y square key_t saw key_r triangle key_u noise
;
#X obj 16 189 key-map key_q lowpass key_w bandpass key_e hipass;
#X obj 16 242 key-map key_i volume key_o ringmod;
#N canvas 118 382 450 463 process-octave 0;
#X obj 13 11 inlet;
#X obj 13 33 unpack f f;
#X obj 80 58 > 0;
#X obj 13 95 list prepend;
#X obj 13 159 change;
#X obj 13 117 route 1 0;
#X msg 43 137 0;
#X obj 13 181 sel 0;
#X obj 45 316 + 60;
#X obj 45 292 * 12;
#X obj 63 204 min 3;
#X obj 63 226 max -3;
#X obj 45 248 + 0;
#X floatatom 45 270 5 0 0 0 - - -, f 5;
#X obj 45 388 s \$0/rootnote;
#X obj 45 358 + -0.5;
#X obj 91 276 / 127;
#X obj 91 298 - 0.5;
#X obj 91 254 r arp-tuning;
#X obj 91 320 t b f;
#X connect 0 0 1 0;
#X connect 1 0 3 0;
#X connect 1 1 2 0;
#X connect 2 0 3 1;
#X connect 3 0 5 0;
#X connect 4 0 7 0;
#X connect 5 0 4 0;
#X connect 5 1 6 0;
#X connect 6 0 4 0;
#X connect 7 1 12 0;
#X connect 8 0 15 0;
#X connect 9 0 8 0;
#X connect 10 0 11 0;
#X connect 11 0 12 1;
#X connect 12 0 10 0;
#X connect 12 0 13 0;
#X connect 13 0 9 0;
#X connect 15 0 14 0;
#X connect 16 0 17 0;
#X connect 17 0 19 0;
#X connect 18 0 16 0;
#X connect 19 0 15 0;
#X connect 19 1 15 1;
#X restore 16 101 pd process-octave;
#N canvas 121 514 450 300 process-wave 0;
#X obj 12 13 inlet;
#X obj 12 65 list split 1;
#X obj 84 157 list;
#X obj 52 90 sel 0;
#X obj 12 35 t a a;
#X msg 84 114 bang;
#X obj 84 179 list split 1;
#X obj 84 241 s arp-wave;
#X connect 0 0 4 0;
#X connect 1 1 3 0;
#X connect 2 0 6 0;
#X connect 3 1 5 0;
#X connect 4 0 1 0;
#X connect 4 1 2 1;
#X connect 5 0 2 0;
#X connect 6 0 7 0;
#X restore 16 156 pd process-wave;
#X connect 0 0 8 0;
#X connect 4 0 3 0;
#X connect 5 0 9 0;
#X connect 6 0 1 0;
#X connect 7 0 2 0;
#X restore 801 405 pd keyboard;
#X obj 829 382 hidkeys;
#X obj 459 35 arp;
#N canvas 335 79 450 631 arp-data 0;
#X obj 15 546 outlet;
#X obj 15 12 r \$0/notes;
#X text 44 194 add rootnote;
#X obj 15 215 lol teef ^ done \; each \; concat \$0/rootnote \; + \;
gather ^ done \; list prepend notes \;;
#X obj 15 129 route bang;
#X msg 273 262 list notes bang;
#X obj 300 13 r arp-cutoff;
#X obj 300 35 list prepend cutoff;
#X obj 217 420 r arp-wave;
#X obj 127 10 r \$0/rootnote;
#X msg 127 32 bang;
#X obj 15 84 list;
#X obj 15 34 t b a;
#X obj 127 54 delay 1;
#X obj 217 442 sel square saw triangle noise;
#X msg 217 464 1;
#X msg 267 464 0;
#X obj 217 492 list prepend waveform;
#N canvas 2 50 450 300 magic-freq 0;
#X obj 12 11 inlet;
#X obj 12 85 outlet;
#X obj 93 94 list length;
#X obj 116 185 >;
#X obj 93 116 t f f b;
#X obj 139 160 0;
#X obj 12 33 t a a a;
#X obj 116 210 sel 1;
#X obj 116 232 list;
#X obj 116 254 s magic/notes;
#X obj 227 20 r \$0/rootnote;
#X obj 227 42 s magic/rootnote;
#X connect 0 0 6 0;
#X connect 2 0 4 0;
#X connect 3 0 7 0;
#X connect 4 0 5 1;
#X connect 4 1 3 0;
#X connect 4 2 5 0;
#X connect 5 0 3 1;
#X connect 6 0 1 0;
#X connect 6 1 2 0;
#X connect 6 2 8 1;
#X connect 7 0 8 0;
#X connect 8 0 9 0;
#X connect 10 0 11 0;
#X restore 15 107 pd magic-freq;
#X connect 1 0 12 0;
#X connect 3 0 0 0;
#X connect 4 0 5 0;
#X connect 4 1 3 0;
#X connect 5 0 0 0;
#X connect 6 0 7 0;
#X connect 7 0 0 0;
#X connect 8 0 14 0;
#X connect 9 0 10 0;
#X connect 10 0 13 0;
#X connect 11 0 18 0;
#X connect 12 0 11 0;
#X connect 12 1 11 1;
#X connect 13 0 11 0;
#X connect 14 0 15 0;
#X connect 14 1 16 0;
#X connect 15 0 17 0;
#X connect 16 0 17 0;
#X connect 17 0 0 0;
#X connect 18 0 4 0;
#X restore 459 14 pd arp-data;
#N canvas 2 50 450 300 declarations 0;
#X obj 262 15 declare -path ./patches;
#X obj 234 40 declare -path ./patches/lib;
#X obj 193 64 declare -path ./patches/lib/lolPd;
#X obj 172 87 declare -path ./patches/lib/rjlib/rj;
#X obj 172 109 declare -path ./patches/lib/list-abs;
#X obj 88 153 declare -path ./patches/lib/s-abstractions/trunk;
#X obj 145 131 declare -path ./patches/lib/pd-midi-guis;
#X obj 88 175 declare -path ./patches/lib/blockhead;
#X restore 739 22 pd declarations;
#X obj 815 336 gba-clock;
#X obj 17 31 fx/snatch left clock/bpm;
#X obj 44 51 fx/snatch right clock/bpm;
#N canvas 2 50 450 300 metronome 0;
#X obj 20 252 outlet~;
#X obj 23 23 r clock/tick;
#X msg 23 75 1 \, 0 50;
#X obj 23 97 line~;
#X obj 20 191 osc~ 440;
#X obj 20 213 *~;
#X obj 23 47 t b f;
#X obj 98 73 mod 4;
#X obj 98 95 == 0;
#X obj 98 117 * 5;
#X obj 98 161 mtof;
#X obj 98 139 + 72;
#X connect 1 0 6 0;
#X connect 2 0 3 0;
#X connect 3 0 5 1;
#X connect 4 0 5 0;
#X connect 5 0 0 0;
#X connect 6 0 2 0;
#X connect 6 1 7 0;
#X connect 7 0 8 0;
#X connect 8 0 9 0;
#X connect 9 0 11 0;
#X connect 10 0 4 0;
#X connect 11 0 10 0;
#X restore 261 29 pd metronome;
#X obj 261 51 *~ 0.25;
#X obj 801 358 midi-config;
#X obj 459 150 fx/looper clock/tick 32 arp-loop;
#X obj 459 87 hip~ 5;
#X obj 16 96 vol left;
#X obj 84 96 vol right;
#X obj 460 179 vol arp;
#X obj 612 179 vol arp-loop;
#X obj 626 104 *~ 0.125;
#X obj 459 109 *~ 0.125;
#X obj 270 301 fx/bus-fx1;
#X obj 327 237 r fx-1/select;
#X obj 459 258 *~ 0.5;
#X obj 84 118 fx-router right;
#X obj 16 168 fx-router left;
#X text 468 59 reverb;
#X obj 16 190 *~ 2;
#X obj 84 140 *~ 2;
#X obj 270 323 vol fx-1;
#X obj 458 128 fx/reverb;
#X obj 526 79 r arp-reverb;
#X obj 459 202 fx/snatch arp clock/bpm;
#X obj 612 201 fx/snatch arp-loop clock-bpm;
#X obj 612 260 *~ 0.5;
#X obj 84 303 random-stereo-phase 3 4;
#X obj 17 334 random-stereo-phase 0 4;
#X obj 459 282 random-stereo-phase 1 4;
#X obj 612 282 random-stereo-phase 2 4;
#X obj 459 226 fx-router arp;
#X obj 612 229 fx-router arp-loop;
#X obj 251 454 s~ master/left;
#X obj 351 454 s~ master/right;
#X connect 0 0 11 0;
#X connect 0 1 12 0;
#X connect 2 0 3 0;
#X connect 4 0 22 0;
#X connect 7 0 17 0;
#X connect 8 0 7 0;
#X connect 11 0 18 0;
#X connect 12 0 19 0;
#X connect 13 0 14 0;
#X connect 16 0 20 0;
#X connect 16 1 21 0;
#X connect 17 0 23 0;
#X connect 18 0 28 0;
#X connect 19 0 27 0;
#X connect 20 0 35 0;
#X connect 21 0 36 0;
#X connect 22 0 20 0;
#X connect 22 0 21 0;
#X connect 23 0 33 0;
#X connect 24 0 32 0;
#X connect 25 0 24 1;
#X connect 26 0 40 0;
#X connect 27 0 31 0;
#X connect 27 1 24 0;
#X connect 28 0 30 0;
#X connect 28 1 24 0;
#X connect 30 0 39 0;
#X connect 31 0 38 0;
#X connect 32 0 1 1;
#X connect 32 0 1 0;
#X connect 32 0 44 0;
#X connect 32 0 45 0;
#X connect 33 0 16 0;
#X connect 34 0 33 1;
#X connect 35 0 42 0;
#X connect 36 0 43 0;
#X connect 37 0 41 0;
#X connect 38 0 1 0;
#X connect 38 0 44 0;
#X connect 38 1 1 1;
#X connect 38 1 45 0;
#X connect 39 0 1 0;
#X connect 39 0 44 0;
#X connect 39 1 1 1;
#X connect 39 1 45 0;
#X connect 40 0 1 0;
#X connect 40 0 44 0;
#X connect 40 1 1 1;
#X connect 40 1 45 0;
#X connect 41 0 1 0;
#X connect 41 0 44 0;
#X connect 41 1 1 1;
#X connect 41 1 45 0;
#X connect 42 0 26 0;
#X connect 42 1 24 0;
#X connect 43 0 37 0;
#X connect 43 1 24 0;
