#N struct 1013-f float x;
#N canvas 575 72 886 494 10;
#X declare -path lib/rjlib/rj;
#X declare -path ./patches;
#X declare -path ./patches/lib;
#X declare -path ./patches/lib/lolPd;
#X declare -path ./patches/lib/rjlib/rj;
#X declare -path ./patches/lib/list-abs;
#X declare -path ./patches/lib/s-abstractions/trunk;
#X declare -path ./patches/lib/pd-midi-guis;
#X declare -path ./patches/lib/blockhead;
#X declare -path ./patches/lib/pd-acid-core;
#X declare -path ./patches/lib/lolPd;
#X declare -path ./patches/lib/list-abs;
#X declare -path ./patches/lib/s-abstractions/trunk;
#X declare -path ./patches/lib/pd-midi-guis;
#X declare -path ../../s-abstractions/trunk;
#X declare -path ../../s-abstractions;
#X declare -path ../../lolPd;
#X declare -path blockhead;
#X declare -path blockhead;
#X declare -path blockhead;
#X declare -path blockhead;
#X declare -path blockhead;
#X declare -path .;
#X declare -path ./common/;
#X declare -path ./blockhead/;
#X declare -path ./rjlib/rj;
#X obj 17 9 adc~ 1 2 3 4;
#X obj 787 42 loadbang;
#X msg 787 64 \; pd dsp 1;
#X obj 626 82 6581-hum;
#N canvas 1145 338 450 300 keyboard 0;
#X obj 16 79 key-map key_comma -1 key_dot 1;
#X obj 16 211 print filter;
#X obj 16 264 print mod;
#N canvas 613 426 450 578 process-keys 0;
#X obj 19 15 inlet;
#X obj 19 37 t a a;
#X obj 19 82 swap;
#X obj 19 114 pack f f;
#X obj 19 139 route 0 1 2;
#X obj 108 478 list;
#X obj 188 425 list-unique;
#X obj 19 409 list-filter;
#X obj 107 409 != -1;
#X obj 188 447 list-sort;
#X obj 108 540 s \$0/notes;
#X obj 51 60 print key-code;
#X obj 188 349 list prepend;
#X obj 19 368 list;
#X obj 188 327 list;
#X obj 19 347 t b f;
#X obj 188 305 t b f;
#X obj 108 499 t a a a a;
#X connect 0 0 1 0;
#X connect 1 0 2 0;
#X connect 2 0 3 0;
#X connect 2 1 3 1;
#X connect 3 0 4 0;
#X connect 4 0 15 0;
#X connect 4 1 16 0;
#X connect 4 2 16 0;
#X connect 5 0 17 0;
#X connect 6 0 9 0;
#X connect 7 0 5 0;
#X connect 7 1 8 0;
#X connect 8 0 7 1;
#X connect 9 0 5 0;
#X connect 12 0 6 0;
#X connect 13 0 7 0;
#X connect 14 0 12 0;
#X connect 15 0 13 0;
#X connect 15 1 8 1;
#X connect 16 0 14 0;
#X connect 16 1 12 1;
#X connect 17 0 10 0;
#X connect 17 2 13 1;
#X connect 17 3 14 1;
#X restore 16 46 pd process-keys;
#X obj 16 11 key-map key_z 0 key_s 1 key_x 2 key_d 3 key_c 4 key_v
5 key_g 6 key_b 7 key_h 8 key_n 9 key_j 10 key_m 11;
#X obj 16 134 key-map key_y square key_t saw key_r triangle key_u noise
;
#X obj 16 189 key-map key_q lowpass key_w bandpass key_e hipass;
#X obj 16 242 key-map key_i volume key_o ringmod;
#N canvas 117 376 450 463 process-octave 0;
#X obj 13 11 inlet;
#X obj 13 33 unpack f f;
#X obj 80 58 > 0;
#X obj 13 95 list prepend;
#X obj 13 159 change;
#X obj 13 117 route 1 0;
#X msg 43 137 0;
#X obj 13 181 sel 0;
#X obj 45 316 + 60;
#X obj 45 292 * 12;
#X obj 63 204 min 3;
#X obj 63 226 max -3;
#X obj 45 248 + 0;
#X floatatom 45 270 5 0 0 0 - - -, f 5;
#X obj 45 388 s \$0/rootnote;
#X obj 45 358 + -0.5;
#X obj 91 276 / 127;
#X obj 91 298 - 0.5;
#X obj 91 254 r arp-tuning;
#X obj 91 320 t b f;
#X connect 0 0 1 0;
#X connect 1 0 3 0;
#X connect 1 1 2 0;
#X connect 2 0 3 1;
#X connect 3 0 5 0;
#X connect 4 0 7 0;
#X connect 5 0 4 0;
#X connect 5 1 6 0;
#X connect 6 0 4 0;
#X connect 7 1 12 0;
#X connect 8 0 15 0;
#X connect 9 0 8 0;
#X connect 10 0 11 0;
#X connect 11 0 12 1;
#X connect 12 0 10 0;
#X connect 12 0 13 0;
#X connect 13 0 9 0;
#X connect 15 0 14 0;
#X connect 16 0 17 0;
#X connect 17 0 19 0;
#X connect 18 0 16 0;
#X connect 19 0 15 0;
#X connect 19 1 15 1;
#X restore 16 101 pd process-octave;
#N canvas 121 514 450 300 process-wave 0;
#X obj 12 13 inlet;
#X obj 12 65 list split 1;
#X obj 84 157 list;
#X obj 52 90 sel 0;
#X obj 12 35 t a a;
#X msg 84 114 bang;
#X obj 84 179 list split 1;
#X obj 84 241 s arp-wave;
#X connect 0 0 4 0;
#X connect 1 1 3 0;
#X connect 2 0 6 0;
#X connect 3 1 5 0;
#X connect 4 0 1 0;
#X connect 4 1 2 1;
#X connect 5 0 2 0;
#X connect 6 0 7 0;
#X restore 16 156 pd process-wave;
#X connect 0 0 8 0;
#X connect 4 0 3 0;
#X connect 5 0 9 0;
#X connect 6 0 1 0;
#X connect 7 0 2 0;
#X restore 801 405 pd keyboard;
#X obj 829 382 hidkeys;
#X obj 459 35 arp;
#N canvas 334 73 450 631 arp-data 0;
#X obj 15 546 outlet;
#X obj 15 12 r \$0/notes;
#X text 44 194 add rootnote;
#X obj 15 215 lol teef ^ done \; each \; concat \$0/rootnote \; + \;
gather ^ done \; list prepend notes \;;
#X obj 15 129 route bang;
#X msg 273 262 list notes bang;
#X obj 300 13 r arp-cutoff;
#X obj 300 35 list prepend cutoff;
#X obj 217 420 r arp-wave;
#X obj 127 10 r \$0/rootnote;
#X msg 127 32 bang;
#X obj 15 84 list;
#X obj 15 34 t b a;
#X obj 127 54 delay 1;
#X obj 217 442 sel square saw triangle noise;
#X msg 217 464 1;
#X msg 267 464 0;
#X obj 217 492 list prepend waveform;
#N canvas 698 573 450 300 magic-freq 0;
#X obj 12 11 inlet;
#X obj 12 105 outlet;
#X obj 93 114 list length;
#X obj 116 205 >;
#X obj 134 180 0;
#X obj 12 33 t a a a;
#X obj 116 230 sel 1;
#X obj 116 252 list;
#X obj 116 274 s magic/notes;
#X obj 227 20 r \$0/rootnote;
#X obj 227 42 s magic/rootnote;
#X obj 93 136 t f f b;
#X obj 88 76 t a a;
#X obj 243 121 list;
#X obj 243 143 t a a;
#X obj 243 225 print magic/notes;
#X obj 275 196 print magic/notes.length;
#X obj 275 168 list length;
#X connect 0 0 5 0;
#X connect 2 0 11 0;
#X connect 3 0 6 0;
#X connect 4 0 3 1;
#X connect 5 0 1 0;
#X connect 5 1 12 0;
#X connect 5 2 7 1;
#X connect 6 0 7 0;
#X connect 7 0 8 0;
#X connect 9 0 10 0;
#X connect 11 0 4 1;
#X connect 11 1 3 0;
#X connect 11 2 4 0;
#X connect 12 0 2 0;
#X connect 12 1 13 0;
#X connect 13 0 14 0;
#X connect 14 1 17 0;
#X restore 15 107 pd magic-freq;
#X connect 1 0 12 0;
#X connect 3 0 0 0;
#X connect 4 0 5 0;
#X connect 4 1 3 0;
#X connect 5 0 0 0;
#X connect 6 0 7 0;
#X connect 7 0 0 0;
#X connect 8 0 14 0;
#X connect 9 0 10 0;
#X connect 10 0 13 0;
#X connect 11 0 18 0;
#X connect 12 0 11 0;
#X connect 12 1 11 1;
#X connect 13 0 11 0;
#X connect 14 0 15 0;
#X connect 14 1 16 0;
#X connect 15 0 17 0;
#X connect 16 0 17 0;
#X connect 17 0 0 0;
#X connect 18 0 4 0;
#X restore 459 14 pd arp-data;
#N canvas 2 50 450 300 declarations 0;
#X obj 262 15 declare -path ./patches;
#X obj 234 40 declare -path ./patches/lib;
#X obj 193 64 declare -path ./patches/lib/lolPd;
#X obj 172 87 declare -path ./patches/lib/rjlib/rj;
#X obj 172 109 declare -path ./patches/lib/list-abs;
#X obj 88 153 declare -path ./patches/lib/s-abstractions/trunk;
#X obj 145 131 declare -path ./patches/lib/pd-midi-guis;
#X obj 88 175 declare -path ./patches/lib/blockhead;
#X obj 88 196 declare -path ./patches/lib/pd-acid-core;
#X restore 739 22 pd declarations;
#X obj 815 336 gba-clock;
#X obj 17 31 fx/snatch left clock/bpm;
#X obj 44 51 fx/snatch right clock/bpm;
#N canvas 2 50 450 300 metronome 0;
#X obj 20 252 outlet~;
#X obj 23 23 r clock/tick;
#X msg 23 75 1 \, 0 50;
#X obj 23 97 line~;
#X obj 20 191 osc~ 440;
#X obj 20 213 *~;
#X obj 23 47 t b f;
#X obj 98 73 mod 4;
#X obj 98 95 == 0;
#X obj 98 117 * 5;
#X obj 98 161 mtof;
#X obj 98 139 + 72;
#X connect 1 0 6 0;
#X connect 2 0 3 0;
#X connect 3 0 5 1;
#X connect 4 0 5 0;
#X connect 5 0 0 0;
#X connect 6 0 2 0;
#X connect 6 1 7 0;
#X connect 7 0 8 0;
#X connect 8 0 9 0;
#X connect 9 0 11 0;
#X connect 10 0 4 0;
#X connect 11 0 10 0;
#X restore 261 29 pd metronome;
#X obj 261 51 *~ 0.25;
#X obj 801 358 midi-config;
#X obj 459 150 fx/looper clock/tick 32 arp-loop;
#X obj 459 87 hip~ 5;
#X obj 16 96 vol left;
#X obj 84 96 vol right;
#X obj 460 179 vol arp;
#X obj 652 179 vol arp-loop;
#X obj 626 104 *~ 0.125;
#X obj 459 109 *~ 0.125;
#X obj 270 301 fx/bus-fx1;
#X obj 459 258 *~ 0.5;
#X obj 84 118 fx-router right;
#X obj 16 168 fx-router left;
#X text 468 59 reverb;
#X obj 16 190 *~ 2;
#X obj 84 140 *~ 2;
#X obj 270 323 vol fx-1;
#X obj 458 128 fx/reverb;
#X obj 526 79 r arp-reverb;
#X obj 459 202 fx/snatch arp clock/bpm;
#X obj 652 260 *~ 0.5;
#X obj 84 303 random-stereo-phase 3 4;
#X obj 459 226 fx-router arp;
#X obj 652 229 fx-router arp-loop;
#X obj 204 454 s~ master/left;
#X obj 351 454 s~ master/right;
#X obj 628 377 r~ master/left;
#X obj 651 405 r~ master/right;
#N canvas 185 137 450 300 op-sync 0;
#X obj 16 266 outlet~;
#X obj 15 24 r clock/tick;
#X obj 15 118 vline~;
#X msg 15 96 1 \, 0 0 3.3;
#X connect 1 0 3 0;
#X connect 2 0 0 0;
#X connect 3 0 2 0;
#X restore 672 429 pd op-sync;
#X obj 629 459 dac~ 1 2 3 4 5 6;
#N canvas 405 415 450 300 magic-notes 0;
#N canvas 1340 652 450 300 convert-notes 0;
#X obj 10 8 inlet;
#X obj 288 10 inlet;
#X obj 10 154 outlet;
#X obj 10 86 each \$0/notes-done;
#X obj 10 131 gather \$0/notes-done;
#X obj 10 108 +;
#X connect 0 0 3 0;
#X connect 1 0 5 1;
#X connect 3 0 5 0;
#X connect 4 0 2 0;
#X connect 5 0 4 0;
#X restore 21 69 pd convert-notes;
#X obj 21 45 r magic/notes;
#X obj 216 11 r magic/rootnote;
#N canvas 655 345 450 300 wrap 0;
#X obj 23 18 inlet;
#X obj 23 41 * 100;
#X obj 23 61 % 1200;
#X obj 23 83 / 100;
#X obj 23 105 outlet;
#X connect 0 0 1 0;
#X connect 1 0 2 0;
#X connect 2 0 3 0;
#X connect 3 0 4 0;
#X restore 216 35 pd wrap;
#X obj 21 140 s magic/scale;
#X obj 53 114 print MAGIC;
#X obj 21 91 t a a;
#X connect 0 0 6 0;
#X connect 1 0 0 0;
#X connect 2 0 3 0;
#X connect 3 0 0 1;
#X connect 6 0 4 0;
#X connect 6 1 5 0;
#X restore 780 432 pd magic-notes;
#X obj 652 201 fx/snatch arp-loop clock/bpm;
#X obj 17 334 random-stereo-phase 0 4;
#X obj 459 282 random-stereo-phase 1 4;
#X obj 652 282 random-stereo-phase 2 4;
#X obj 247 116 catch~ acid/out;
#X obj 247 166 e_foldover;
#X obj 247 210 random-stereo-phase 1.5 4;
#X obj 314 139 r acid/distortion;
#X obj 247 188 vol acid;
#X obj 246 93 acid-core acid;
#X connect 0 0 10 0;
#X connect 0 1 11 0;
#X connect 1 0 2 0;
#X connect 3 0 21 0;
#X connect 6 0 16 0;
#X connect 7 0 6 0;
#X connect 10 0 17 0;
#X connect 11 0 18 0;
#X connect 12 0 13 0;
#X connect 15 0 19 0;
#X connect 15 1 20 0;
#X connect 16 0 22 0;
#X connect 17 0 26 0;
#X connect 18 0 25 0;
#X connect 19 0 33 0;
#X connect 20 0 45 0;
#X connect 21 0 19 0;
#X connect 21 0 20 0;
#X connect 22 0 31 0;
#X connect 23 0 30 0;
#X connect 24 0 47 0;
#X connect 25 0 29 0;
#X connect 25 1 23 0;
#X connect 26 0 28 0;
#X connect 26 1 23 0;
#X connect 28 0 46 0;
#X connect 29 0 35 0;
#X connect 30 0 38 0;
#X connect 30 0 39 0;
#X connect 31 0 15 0;
#X connect 32 0 31 1;
#X connect 33 0 36 0;
#X connect 34 0 48 0;
#X connect 35 0 38 0;
#X connect 35 1 39 0;
#X connect 36 0 24 0;
#X connect 36 1 23 0;
#X connect 37 0 34 0;
#X connect 37 1 23 0;
#X connect 40 0 43 0;
#X connect 41 0 43 1;
#X connect 42 0 43 2;
#X connect 42 0 43 4;
#X connect 45 0 37 0;
#X connect 46 0 38 0;
#X connect 46 1 39 0;
#X connect 47 0 38 0;
#X connect 47 1 39 0;
#X connect 48 0 38 0;
#X connect 48 1 39 0;
#X connect 49 0 50 0;
#X connect 50 0 53 0;
#X connect 51 0 38 0;
#X connect 51 1 39 0;
#X connect 52 0 50 1;
#X connect 53 0 51 0;
