#N canvas 952 439 790 313 10;
#X declare -path ../../s-abstractions/trunk;
#X declare -path ../../s-abstractions;
#X declare -path ../../lolPd;
#X obj 11 14 inlet~;
#X obj 11 276 outlet~;
#X obj 486 280 declare -path ../../s-abstractions/trunk;
#X obj 11 106 fx/bitcrush 0 fx-1;
#X obj 36 142 fx/delay 1 fx-1;
#X obj 82 172 fx/ringmod 2 fx-1;
#X obj 135 197 fx/filter 3 fx-1;
#X obj 485 255 declare -path ../../lolPd;
#X text 571 9 TODO: make \$2/down re-route \; the source bus-main instead
\;;
#X obj 80 13 loadbang;
#X msg 80 35 0;
#X obj 321 183 r fx-1/down-pre;
#X obj 321 226 / 127;
#X obj 321 270 s fx-1/down;
#X obj 581 52 magic-freq-converter fx-1;
#X obj 321 248 == 0;
#X obj 326 18 r fx-1/fx-pre-1;
#X obj 175 62 +;
#X obj 175 15 r fx-1/select;
#X obj 327 94 r fx-1/fx-pre-2;
#X obj 175 39 fx-looper fx-1/loop;
#X obj 321 205 fx-looper fx-1/loop;
#X obj 326 40 fx-looper fx-1/loop;
#X obj 326 62 s fx-1/fx-1;
#X obj 327 116 fx-looper fx-1/loop;
#X obj 327 138 s fx-1/fx-2;
#X connect 0 0 3 0;
#X connect 0 0 4 0;
#X connect 0 0 5 0;
#X connect 0 0 6 0;
#X connect 3 0 1 0;
#X connect 4 0 1 0;
#X connect 5 0 1 0;
#X connect 6 0 1 0;
#X connect 9 0 10 0;
#X connect 10 0 3 1;
#X connect 11 0 21 0;
#X connect 12 0 15 0;
#X connect 15 0 13 0;
#X connect 16 0 22 0;
#X connect 17 0 3 1;
#X connect 17 0 4 1;
#X connect 17 0 5 1;
#X connect 17 0 6 1;
#X connect 18 0 20 0;
#X connect 19 0 24 0;
#X connect 20 0 17 0;
#X connect 21 0 12 0;
#X connect 22 0 23 0;
#X connect 24 0 25 0;
