#N canvas 115 203 967 321 10;
#X obj 12 13 inlet~;
#X obj 13 276 outlet~;
#X obj 687 10 r \$1;
#X obj 687 32 mod \$2;
#X obj 687 54 sel 0;
#X obj 460 200 tabplay~ \$0/loop;
#X obj 460 246 *~ 0;
#X obj 34 183 tabwrite~ \$0/loop;
#X obj 801 34 t f f;
#X obj 34 54 r \$0/stop;
#X msg 34 76 stop;
#X obj 111 106 spigot 1;
#X obj 801 150 s \$0/gate;
#X obj 485 223 r \$0/gate;
#X obj 164 63 r \$0/gate;
#X obj 164 85 == 0;
#X obj 261 63 timer;
#X obj 261 107 *;
#X obj 345 73 samplerate~;
#X obj 345 41 loadbang;
#X msg 261 129 start \$1;
#X obj 687 76 s \$0/start;
#X obj 111 14 r \$0/start;
#X obj 261 41 r \$0/start;
#X obj 460 180 r \$0/start;
#X obj 801 12 r \$3;
#X text 410 13 args: tick-name length switch-name;
#X obj 833 56 sel 0;
#X msg 865 83 bang;
#X obj 293 15 r \$0/continue;
#X obj 801 67 > 0;
#X obj 865 106 s \$0/stop;
#X obj 833 129 s \$0/continue;
#X obj 459 277 outlet~;
#X obj 154 249 r \$0/stop;
#X obj 154 271 print arp-loop-stop;
#X obj 194 186 print arp-loop-start;
#X obj 261 152 print arp-loop-continue;
#X msg 111 36 stop \, bang;
#X obj 261 85 / 1000;
#X obj 725 235 # table \$0/loop 441000;
#X obj 725 257 table \$0/loop 882000;
#X connect 0 0 1 0;
#X connect 0 0 7 0;
#X connect 2 0 3 0;
#X connect 3 0 4 0;
#X connect 4 0 21 0;
#X connect 5 0 6 0;
#X connect 6 0 33 0;
#X connect 8 0 30 0;
#X connect 8 1 27 0;
#X connect 9 0 10 0;
#X connect 10 0 7 0;
#X connect 11 0 7 0;
#X connect 11 0 36 0;
#X connect 13 0 6 1;
#X connect 14 0 15 0;
#X connect 15 0 11 1;
#X connect 16 0 39 0;
#X connect 17 0 20 0;
#X connect 18 0 17 1;
#X connect 19 0 18 0;
#X connect 20 0 7 0;
#X connect 20 0 37 0;
#X connect 22 0 38 0;
#X connect 23 0 16 0;
#X connect 24 0 5 0;
#X connect 25 0 8 0;
#X connect 27 0 32 0;
#X connect 27 1 28 0;
#X connect 28 0 31 0;
#X connect 29 0 16 1;
#X connect 30 0 12 0;
#X connect 34 0 35 0;
#X connect 38 0 11 0;
#X connect 39 0 17 0;
