#N canvas 2 48 555 304 10;
#X obj 173 123 list prepend notes;
#X obj 173 145 list trim;
#X obj 35 98 list trim;
#X obj 35 77 list prepend bpm;
#X msg 337 173 octave \$1;
#X obj 337 151 r octave;
#X obj 138 39 int;
#X obj 337 96 loadbang;
#X msg 337 118 -3;
#X obj 35 54 r clock/bpm;
#N canvas 1341 658 450 300 convert-notes 1;
#X obj 10 8 inlet;
#X obj 288 10 inlet;
#X obj 10 154 outlet;
#X obj 10 86 each \$0/notes-done;
#X obj 10 131 gather \$0/notes-done;
#X obj 10 108 +;
#X connect 0 0 3 0;
#X connect 1 0 5 1;
#X connect 3 0 5 0;
#X connect 4 0 2 0;
#X connect 5 0 4 0;
#X restore 173 64 pd convert-notes;
#X obj 138 17 r \$1/fx-1;
#X obj 138 244 s \$1/magic-freq;
#X obj 248 244 s \$1/magic-ms;
#X obj 173 40 r magic/notes;
#X obj 368 6 r magic/rootnote;
#X obj 138 212 u_magic-freq;
#X obj 190 101 print MAGIC;
#N canvas 656 351 450 300 wrap 0;
#X obj 23 18 inlet;
#X obj 23 41 * 100;
#X obj 23 61 % 1200;
#X obj 23 83 / 100;
#X obj 23 105 outlet;
#X connect 0 0 1 0;
#X connect 1 0 2 0;
#X connect 2 0 3 0;
#X connect 3 0 4 0;
#X restore 368 30 pd wrap;
#X connect 0 0 1 0;
#X connect 1 0 16 0;
#X connect 2 0 16 0;
#X connect 3 0 2 0;
#X connect 4 0 16 0;
#X connect 5 0 4 0;
#X connect 6 0 16 0;
#X connect 7 0 8 0;
#X connect 8 0 16 0;
#X connect 9 0 3 0;
#X connect 10 0 0 0;
#X connect 10 0 17 0;
#X connect 11 0 6 0;
#X connect 14 0 10 0;
#X connect 15 0 18 0;
#X connect 16 0 12 0;
#X connect 16 1 13 0;
#X connect 18 0 10 1;
