#N canvas 168 237 450 357 10;
#X obj 7 9 inlet~;
#X obj 7 328 outlet~;
#X obj 196 6 r fx-mini/knob/\$1;
#X obj 49 41 r fx-mini/button/\$1;
#X obj 196 74 int;
#X obj 196 96 change;
#X obj 196 29 / 128;
#N canvas 835 191 472 321 loop 0;
#X obj 16 16 inlet~;
#X text 234 22 tick;
#X text 132 15 bpm;
#X obj 199 64 sel 0;
#X obj 287 271 table \$0/loop 882000;
#X obj 16 126 tabwrite~ \$0/loop;
#X obj 199 20 r \$3;
#X obj 199 42 mod 8;
#X msg 243 139 const 0 \;;
#X obj 243 161 s \$0/loop;
#X obj 200 95 bng 15 250 50 0 empty empty empty 17 7 0 10 -262144 -1
-1;
#X obj 95 16 r \$2;
#X connect 0 0 5 0;
#X connect 3 0 5 0;
#X connect 3 0 10 0;
#X connect 6 0 7 0;
#X connect 7 0 3 0;
#X connect 8 0 9 0;
#X restore 23 87 pd loop \$0/loop \$2;
#X obj 7 203 mini-wrapper 3 mini-rate \$0/loop \$3 2;
#X obj 7 148 mini-wrapper 1 mini-freeze;
#X obj 7 228 mini-wrapper 4 mini-r2d2 \$3 2;
#X obj 7 121 mini-wrapper 0 mini-clipper 20 3 \$3;
#X obj 7 255 mini-wrapper 5 mini-dubdelay \$3 2;
#X obj 196 52 * 8;
#X obj 7 277 mini-wrapper 6 mini-waveshape;
#X obj 7 175 mini-wrapper 2 mini-telephone 3000 4;
#X obj 7 299 mini-wrapper 7 mini-chipify;
#X connect 0 0 7 0;
#X connect 0 0 11 0;
#X connect 2 0 6 0;
#X connect 3 0 8 1;
#X connect 3 0 9 1;
#X connect 3 0 10 1;
#X connect 3 0 11 1;
#X connect 3 0 12 1;
#X connect 3 0 14 1;
#X connect 3 0 15 1;
#X connect 3 0 16 1;
#X connect 4 0 5 0;
#X connect 5 0 8 2;
#X connect 5 0 9 2;
#X connect 5 0 10 2;
#X connect 5 0 11 2;
#X connect 5 0 12 2;
#X connect 5 0 14 2;
#X connect 5 0 15 2;
#X connect 5 0 16 2;
#X connect 6 0 13 0;
#X connect 8 0 10 0;
#X connect 9 0 15 0;
#X connect 10 0 12 0;
#X connect 11 0 9 0;
#X connect 12 0 14 0;
#X connect 13 0 4 0;
#X connect 14 0 16 0;
#X connect 15 0 8 0;
#X connect 16 0 1 0;
