#N canvas 525 472 450 300 10;
#X obj 12 12 inlet~;
#X obj 12 265 outlet~;
#X obj 74 12 inlet;
#X obj 122 11 inlet;
#X obj 184 11 inlet;
#X obj 184 33 switch~;
#X obj 191 69 r \$1;
#X floatatom 247 29 5 0 0 0 - - -, f 5;
#X obj 337 68 r \$1;
#X obj 337 90 t b b;
#X obj 337 112 timer;
#X obj 191 91 t b b;
#X obj 50 91 delread~ \$0/delay;
#X obj 191 158 *;
#X obj 191 113 random 4;
#X obj 191 135 expr pow(2 \, $f1);
#X obj 26 145 delwrite~ \$0/delay 500;
#X obj 337 134 / 16;
#X obj 50 113 *~ 0.75;
#X connect 0 0 16 0;
#X connect 4 0 5 0;
#X connect 4 0 7 0;
#X connect 6 0 11 0;
#X connect 8 0 9 0;
#X connect 9 0 10 0;
#X connect 9 1 10 1;
#X connect 10 0 17 0;
#X connect 11 0 14 0;
#X connect 12 0 18 0;
#X connect 13 0 12 0;
#X connect 14 0 15 0;
#X connect 15 0 13 0;
#X connect 17 0 13 1;
#X connect 18 0 1 0;
#X connect 18 0 16 0;
