#N canvas 523 472 450 300 10;
#X obj 12 12 inlet~;
#X obj 12 265 outlet~;
#X obj 74 12 inlet;
#X obj 122 11 inlet;
#X obj 184 11 inlet;
#X obj 184 33 switch~;
#X obj 12 174 *~;
#X obj 48 174 osc~ 440;
#X obj 191 69 r \$1;
#X floatatom 247 29 5 0 0 0 - - -, f 5;
#X obj 191 210 mtof;
#X obj 191 135 sel 0;
#X obj 191 113 random 2;
#X msg 191 232 \$1 100;
#X obj 191 254 line~;
#X obj 302 69 r \$1;
#X obj 302 91 t b b;
#X obj 302 113 timer;
#X obj 302 135 / 2;
#X obj 329 176 delay;
#X obj 191 91 t b b;
#X obj 329 198 random 3;
#X obj 329 220 sel 0;
#X obj 191 158 random 64;
#X obj 191 180 + 32;
#X connect 0 0 6 0;
#X connect 4 0 5 0;
#X connect 4 0 9 0;
#X connect 6 0 1 0;
#X connect 7 0 6 1;
#X connect 8 0 20 0;
#X connect 10 0 13 0;
#X connect 11 0 23 0;
#X connect 12 0 11 0;
#X connect 13 0 14 0;
#X connect 14 0 7 0;
#X connect 15 0 16 0;
#X connect 16 0 17 0;
#X connect 16 1 17 1;
#X connect 17 0 18 0;
#X connect 18 0 19 1;
#X connect 19 0 21 0;
#X connect 20 0 12 0;
#X connect 20 1 19 0;
#X connect 21 0 22 0;
#X connect 22 0 23 0;
#X connect 23 0 24 0;
#X connect 24 0 10 0;
