#N canvas 76 423 450 300 10;
#X obj 13 17 inlet~;
#X obj 14 250 outlet~;
#X obj 145 14 inlet;
#X obj 243 16 inlet;
#X obj 33 49 loadbang;
#X obj 145 108 sel 1;
#X msg 145 164 freeze 0 \, freeze 1;
#X obj 322 46 switch~;
#X obj 322 18 inlet;
#X msg 33 79 roomsize 0.9 \, wet 1 \, dry 0;
#X obj 13 213 freeverb~;
#X obj 145 130 delay 50;
#X connect 0 0 10 0;
#X connect 2 0 5 0;
#X connect 4 0 9 0;
#X connect 5 0 11 0;
#X connect 6 0 10 0;
#X connect 8 0 7 0;
#X connect 9 0 10 0;
#X connect 10 0 1 0;
#X connect 11 0 6 0;
