#N canvas 521 472 450 300 10;
#X obj 12 12 inlet~;
#X obj 12 265 outlet~;
#X obj 74 12 inlet;
#X obj 122 11 inlet;
#X obj 184 11 inlet;
#X obj 184 33 switch~;
#X floatatom 247 29 5 0 0 0 - - -, f 5;
#X obj 12 134 expr~ if($v1>0.1 \, $v1 \, $v1*$v1);
#X connect 0 0 7 0;
#X connect 4 0 5 0;
#X connect 4 0 6 0;
#X connect 7 0 1 0;
