#N canvas 300 115 666 685 10;
#X obj 17 196 *~ 0;
#X obj 195 226 *~ 1;
#X obj 195 495 *~ 1;
#X obj 18 495 *~ 0;
#X obj 458 13 inlet;
#X obj 17 20 inlet~;
#X obj 18 588 outlet~;
#X obj 124 20 inlet;
#X obj 458 38 == \$1;
#X obj 458 61 t a a a;
#X obj 124 67 t a a a a a;
#X obj 17 565 *~ 1;
#X obj 227 141 &&;
#X obj 242 103 t b f;
#X obj 250 189 == 0;
#X obj 124 42 == 127;
#X obj 227 163 t f f f;
#X obj 17 439 \$2 \$3 \$4 \$5;
#X connect 0 0 17 0;
#X connect 1 0 2 0;
#X connect 2 0 11 0;
#X connect 3 0 11 0;
#X connect 4 0 8 0;
#X connect 5 0 0 0;
#X connect 5 0 1 0;
#X connect 7 0 15 0;
#X connect 8 0 9 0;
#X connect 9 0 17 2;
#X connect 9 1 13 0;
#X connect 10 3 12 0;
#X connect 10 4 17 1;
#X connect 11 0 6 0;
#X connect 12 0 16 0;
#X connect 13 0 12 0;
#X connect 13 1 12 1;
#X connect 14 0 1 1;
#X connect 14 0 2 1;
#X connect 15 0 10 0;
#X connect 16 0 0 1;
#X connect 16 0 3 1;
#X connect 16 1 14 0;
#X connect 16 2 17 3;
#X connect 17 0 3 0;
