#N canvas 517 472 482 524 10;
#X obj 12 12 inlet~;
#X obj 134 352 outlet~;
#X obj 74 12 inlet;
#X obj 122 11 inlet;
#X obj 184 11 inlet;
#X obj 184 33 switch~;
#X floatatom 247 29 5 0 0 0 - - -, f 5;
#X obj 134 97 unpack;
#X floatatom 134 147 0 0 0 0 - - -;
#X floatatom 148 124 0 0 0 0 - - -;
#X obj 141 70 route 1 2 3 4;
#X obj 217 97 unpack;
#X floatatom 217 147 0 0 0 0 - - -;
#X floatatom 231 124 0 0 0 0 - - -;
#X obj 301 97 unpack;
#X floatatom 301 147 0 0 0 0 - - -;
#X floatatom 315 124 0 0 0 0 - - -;
#X obj 11 46 fiddle~ 1024 1 20 3;
#X obj 131 178 phasor~;
#X obj 218 177 phasor~;
#X obj 301 174 phasor~;
#X obj 131 200 -~ 0.5;
#X obj 218 199 -~ 0.5;
#X obj 301 196 -~ 0.5;
#X obj 131 222 *~;
#X obj 218 221 *~;
#X obj 301 218 *~;
#X obj 133 247 +~;
#X obj 134 326 s-tanh~;
#X obj 133 269 *~ 3;
#X connect 0 0 17 0;
#X connect 4 0 5 0;
#X connect 4 0 6 0;
#X connect 7 0 8 0;
#X connect 7 1 9 0;
#X connect 8 0 18 0;
#X connect 9 0 24 1;
#X connect 10 0 7 0;
#X connect 10 1 11 0;
#X connect 10 2 14 0;
#X connect 11 0 12 0;
#X connect 11 1 13 0;
#X connect 12 0 19 0;
#X connect 13 0 25 1;
#X connect 14 0 15 0;
#X connect 14 1 16 0;
#X connect 15 0 20 0;
#X connect 16 0 26 1;
#X connect 17 4 10 0;
#X connect 18 0 21 0;
#X connect 19 0 22 0;
#X connect 20 0 23 0;
#X connect 21 0 24 0;
#X connect 22 0 25 0;
#X connect 23 0 26 0;
#X connect 24 0 27 0;
#X connect 25 0 27 0;
#X connect 26 0 27 0;
#X connect 27 0 29 0;
#X connect 28 0 1 0;
#X connect 29 0 28 0;
