#N canvas 263 662 738 300 10;
#X obj 13 17 inlet~;
#X obj 14 250 outlet~;
#X obj 145 14 inlet;
#X obj 243 16 inlet;
#X obj 33 49 loadbang;
#X obj 145 35 sel 1;
#X obj 322 46 switch~;
#X obj 322 18 inlet;
#X obj 13 213 freeverb~;
#X obj 145 57 t b b b;
#X obj 71 114 delay 1;
#X obj 339 107 delay 100;
#X msg 71 165 roomsize 0 \, freeze 0;
#X obj 159 98 delay 10;
#X msg 339 129 freeze 1;
#X msg 159 125 roomsize 0.2;
#X msg 33 71 roomsize 0.2 \, wet 0.7 \, dry 0.05;
#X connect 0 0 8 0;
#X connect 2 0 5 0;
#X connect 4 0 16 0;
#X connect 5 0 9 0;
#X connect 7 0 6 0;
#X connect 8 0 1 0;
#X connect 9 0 10 0;
#X connect 9 1 13 0;
#X connect 9 2 11 0;
#X connect 10 0 12 0;
#X connect 11 0 14 0;
#X connect 12 0 8 0;
#X connect 13 0 15 0;
#X connect 14 0 8 0;
#X connect 15 0 8 0;
#X connect 16 0 8 0;
