#N canvas 181 243 450 300 10;
#X obj 7 9 inlet~;
#X obj 7 268 outlet~;
#X text 310 210 bang - envelope \; bang - envelope 2 \; half-speed
buffer \; double-speed buffer \; ghost sticky \;;
#X obj 196 6 r fx-mini/knob/\$1;
#X obj 49 41 r fx-mini/button/\$1;
#X obj 216 235 mini-rate 0.5;
#X obj 216 259 mini-rate 2;
#X obj 196 52 * 3;
#X obj 196 74 int;
#X obj 196 96 change;
#X obj 196 29 / 128;
#X obj 7 121 mini-wrapper 0 mini-clipper 10 3;
#X obj 7 148 mini-wrapper 1 mini-freeze;
#X obj 7 175 mini-wrapper 2 mini-telephone 3000 4;
#X connect 0 0 11 0;
#X connect 3 0 10 0;
#X connect 4 0 11 1;
#X connect 4 0 12 1;
#X connect 4 0 13 1;
#X connect 7 0 8 0;
#X connect 8 0 9 0;
#X connect 9 0 11 2;
#X connect 9 0 12 2;
#X connect 9 0 13 2;
#X connect 10 0 7 0;
#X connect 11 0 12 0;
#X connect 12 0 13 0;
#X connect 13 0 1 0;
