#N canvas 800 519 450 421 10;
#X obj 11 11 inlet~;
#X obj 70 11 inlet;
#X obj 121 11 inlet;
#X obj 173 11 inlet;
#X obj 174 387 outlet~;
#X obj 205 58 switch~;
#X obj 173 33 t f f;
#X obj 174 364 tabread4~ \$1;
#X obj 174 337 *~ 44.1;
#X obj 194 170 r~ clock/tick~;
#X obj 208 252 +~;
#X obj 227 228 *;
#X obj 262 196 r clock/ms;
#X obj 249 88 r \$2;
#X obj 249 110 mod 4;
#X obj 249 131 + 0;
#X obj 208 274 *~ \$3;
#X connect 3 0 6 0;
#X connect 6 1 5 0;
#X connect 7 0 4 0;
#X connect 8 0 7 0;
#X connect 9 0 10 0;
#X connect 10 0 16 0;
#X connect 11 0 10 1;
#X connect 12 0 11 1;
#X connect 13 0 14 0;
#X connect 14 0 15 0;
#X connect 15 0 11 0;
#X connect 16 0 8 0;
