#N canvas 710 417 450 300 10;
#X obj 12 12 inlet~;
#X obj 12 265 outlet~;
#X obj 74 12 inlet;
#X obj 124 11 inlet;
#X obj 27 190 vline~;
#X msg 27 163 1 \, 0 \$2 \$1;
#X obj 11 216 *~;
#X obj 27 89 bonk~;
#X msg 27 112 bang;
#X obj 172 11 inlet;
#X obj 172 33 switch~;
#X obj 27 136 list \$1 \$2;
#X obj 27 64 *~ 1;
#X obj 11 241 *~ 2;
#X connect 0 0 6 0;
#X connect 0 0 12 0;
#X connect 4 0 6 1;
#X connect 5 0 4 0;
#X connect 6 0 13 0;
#X connect 7 0 8 0;
#X connect 8 0 11 0;
#X connect 9 0 10 0;
#X connect 11 0 5 0;
#X connect 12 0 7 0;
#X connect 13 0 1 0;
