#N canvas 706 417 450 381 10;
#X obj 12 12 inlet~;
#X obj 12 325 outlet~;
#X obj 74 12 inlet;
#X obj 124 11 inlet;
#X obj 27 250 vline~;
#X msg 27 223 1 \, 0 \$2 \$1;
#X obj 11 276 *~;
#X obj 172 11 inlet;
#X obj 172 33 switch~;
#X obj 27 196 list \$1 \$2;
#X obj 27 64 *~ 1;
#X obj 11 301 *~ 2;
#X obj 27 171 spigot;
#X obj 330 9 r \$3;
#X obj 330 53 timer;
#X obj 330 75 / 2;
#X obj 298 101 delay;
#X obj 27 111 t b b b;
#X obj 27 89 bonk~;
#X obj 330 31 t b b b b;
#X msg 66 148 1;
#X msg 298 123 bang;
#X obj 298 145 t b b;
#X msg 298 167 0;
#X connect 0 0 6 0;
#X connect 0 0 10 0;
#X connect 4 0 6 1;
#X connect 5 0 4 0;
#X connect 6 0 11 0;
#X connect 7 0 8 0;
#X connect 9 0 5 0;
#X connect 10 0 18 0;
#X connect 11 0 1 0;
#X connect 12 0 9 0;
#X connect 13 0 19 0;
#X connect 14 0 15 0;
#X connect 15 0 16 1;
#X connect 16 0 21 0;
#X connect 17 1 20 0;
#X connect 18 1 17 0;
#X connect 19 0 14 0;
#X connect 19 1 14 1;
#X connect 19 2 16 0;
#X connect 19 3 21 0;
#X connect 20 0 12 1;
#X connect 21 0 22 0;
#X connect 22 0 23 0;
#X connect 22 1 12 0;
#X connect 23 0 12 1;
