#N canvas 494 502 450 300 10;
#X obj 50 221 freeverb~;
#X obj 110 131 loadbang;
#X msg 110 153 dry 0 \, wet 1;
#X obj 50 62 inlet~;
#X msg 200 70 roomsize \$1;
#X obj 50 253 outlet~;
#X obj 200 38 / 127;
#X obj 200 16 inlet;
#X obj 50 103 *~ 0;
#X obj 261 110 expr~ $v1 * (1 - $f2);
#X obj 110 100 *~ 1;
#X connect 0 0 5 0;
#X connect 1 0 2 0;
#X connect 2 0 0 0;
#X connect 3 0 8 0;
#X connect 3 0 10 0;
#X connect 4 0 0 0;
#X connect 6 0 4 0;
#X connect 6 0 8 1;
#X connect 7 0 6 0;
#X connect 8 0 0 0;
#X connect 10 0 5 0;
